<svg width="1728" height="1117" viewBox="0 0 1728 1117" fill="none" xmlns="http://www.w3.org/2000/svg">
<g clip-path="url(#clip0_4066_4964)">
<path d="M65.5 322.003C41.9696 334.252 0 340.003 0 340.003V1117H1728V415.503C1728 415.503 1717.94 409.106 1711 406.003C1701.13 401.592 1694.87 401.047 1684.5 398.003C1668.54 393.321 1660.12 387.14 1643.5 386.503L1642.78 386.475C1640.48 386.384 1638.98 386.325 1636.5 386.503C1632.95 386.758 1631.01 387.417 1627.5 388.003C1621.64 388.98 1618.39 389.714 1612.5 390.503C1587.92 393.799 1572.39 382.274 1549 390.503C1546.02 391.55 1544.4 392.251 1541.5 393.503C1538.93 394.613 1537.5 395.243 1535 396.503C1531.8 398.118 1530.47 400.097 1527 401.003C1522.06 402.295 1519.08 398.932 1514 399.503C1511.41 399.794 1510.06 400.539 1507.5 401.003C1497.89 402.744 1492.16 402.447 1482.5 401.003C1476.74 400.141 1473.76 398.402 1468 397.503C1464.12 396.898 1461.92 396.501 1458 396.503C1452.48 396.506 1449.49 397.909 1444 398.503C1426.72 400.372 1414.49 407.293 1399.5 398.503C1395.42 396.112 1394.31 392.949 1390 391.003C1387.41 389.833 1385.82 389.38 1383 389.003C1375.82 388.042 1372.12 392.145 1365 393.503C1359.76 394.502 1356.8 396.058 1351.5 395.503C1349.52 395.296 1348.46 394.831 1346.5 394.503C1340.13 393.442 1336.45 393.311 1330 393.503C1323.51 393.697 1319.89 396.646 1313.5 395.503C1308.93 394.686 1306.8 392.738 1302.5 391.003C1296.08 388.415 1292.73 386.125 1286 384.503C1282.54 383.669 1280.45 383.88 1277 383.003C1269.04 380.982 1266.18 374.672 1258 374.003C1251.01 373.432 1247.28 376.204 1240.5 378.003C1235.78 379.256 1233.28 380.532 1228.5 381.503C1222.73 382.675 1219.35 382.362 1213.5 383.003C1204.11 384.032 1198.68 388.233 1189.5 386.003C1182.02 384.185 1179.84 378.341 1172.5 376.003C1166.32 374.033 1162.38 375.171 1156 374.003C1143.12 371.647 1136.51 367.858 1124 364.003C1116.98 361.839 1113.13 360.282 1106 358.503C1096 356.009 1090.12 355.936 1080 354.003C1063.11 350.778 1053.75 348.407 1037 344.503C1024.87 341.676 1017.86 340.794 1006 337.003C999.469 334.917 996.055 333.013 989.5 331.003L988.841 330.801C977.233 327.241 970.314 325.119 958 324.503C953.905 324.298 951.576 324.947 947.5 324.503C939.52 323.635 935.55 320.729 928 318.003C916.711 313.927 910.849 310.408 899.5 306.503C893.31 304.374 890.038 301.171 883.5 301.503C879.241 301.72 877.086 303.281 873 304.503C865.132 306.856 860.969 309.02 853 311.003C847.017 312.492 843.59 313.044 837.5 314.003C828 315.5 822.463 314.784 813 316.503C805.079 317.942 800.783 319.444 793 321.503C785.947 323.369 781.952 324.289 775 326.503C763.218 330.256 757.071 333.644 745.5 338.003C735.384 341.814 719.5 347.503 719.5 347.503C719.5 347.503 709.267 351.56 702.5 353.503C692.746 356.304 687.116 357.701 677 358.503C669.993 359.059 666.029 358.503 659 358.503C653.533 358.503 650.454 358.129 645 358.503C638.498 358.95 634.966 360.185 628.5 361.003C620.327 362.038 615.731 362.66 607.5 363.003C601.062 363.272 596.963 360.562 591 363.003C589.14 363.765 588.285 364.578 586.5 365.503C563.507 377.424 546.329 373.911 520.5 372.003C516.586 371.714 514.409 371.355 510.5 371.003C505.429 370.547 502.54 370.729 497.5 370.003C487.04 368.497 481.643 365.468 471.5 362.503C460.944 359.418 454.694 358.629 444.5 354.503C440.935 353.06 439.096 351.867 435.5 350.503C431.862 349.124 429.855 348.031 426 347.503C422.905 347.079 421.124 347.503 418 347.503H413H406.5C403.766 347.503 402.032 348.534 399.5 347.503C397.944 346.87 397.626 345.424 396 345.003C393.367 344.322 392.188 347.088 389.5 347.503C387.57 347.801 386.449 347.627 384.5 347.503C379.913 347.211 377.512 345.877 373 345.003C369.691 344.362 364.5 343.503 364.5 343.503L347 337.503C347 337.503 332.084 333.045 323 329.003C316.378 326.056 306.5 320.503 306.5 320.503L292 310.503L283 302.503L272.5 293.003L268.5 290.503C261.611 287.428 256.985 293.057 249.5 294.003C245.413 294.52 243.115 295.196 239 295.003C236.242 294.874 234.621 294.871 232 294.003C228.757 292.929 227.478 291.175 224.5 289.503C215.891 284.669 210.723 282.529 201.5 279.003C197.059 277.305 194.754 275.084 190 275.003C187.432 274.96 185.987 275.363 183.5 276.003C176.462 277.814 173.937 282.132 167.5 285.503C156.642 291.189 150.024 293.328 138.5 297.503C123.747 302.848 100 309.003 100 309.003C100 309.003 81.6749 313.567 71 319.003C68.8198 320.114 67.6702 320.873 65.5 322.003Z" fill="white"/>
</g>
<defs>
<clipPath id="clip0_4066_4964">
<rect width="1728" height="1117" fill="white"/>
</clipPath>
</defs>
</svg>
