<svg width="1728" height="1117" viewBox="0 0 1728 1117" fill="none" xmlns="http://www.w3.org/2000/svg">
<path d="M10.5 319.5C6.52804 319.209 0.5 317.5 0.5 317.5H0V1117H1728V311.5C1728 311.5 1720.18 306.152 1715 303C1702.84 295.603 1695.63 292.003 1682.5 286.5C1673.5 282.727 1668.52 280.162 1659 278C1651.14 276.213 1646.54 276.136 1638.5 275.5C1615.51 273.68 1602.25 274.233 1579.5 278C1565.62 280.298 1557.27 280.604 1544.5 286.5C1521.31 297.207 1523.95 330.845 1498.5 333C1495.19 333.28 1493.31 332.737 1490 333C1483.39 333.524 1479.75 334.784 1473.5 337C1462.45 340.917 1458.57 348.136 1447.5 352C1437.77 355.396 1431.8 356.676 1421.5 356.5C1415.4 356.396 1412.05 355.279 1406 354.5C1398.39 353.52 1394.18 352.11 1386.5 352C1377.85 351.876 1373.11 353.702 1364.5 354.5C1352.03 355.656 1344.97 357.599 1332.5 356.5C1320.09 355.407 1313.8 350.97 1301.5 349C1287.2 346.709 1278.91 345.083 1264.5 346.5C1252.12 347.717 1245.16 350.123 1233.73 354.075L1232.5 354.5C1195.85 367.161 1187.01 397.42 1150.5 410.5C1126.96 418.936 1111.4 414.642 1087.5 422C1064.27 429.151 1054.21 441.655 1030.5 447C1016.89 450.068 1008.95 451.117 995 451C982.019 450.891 974.875 448.658 962 447C950.469 445.515 944.112 442.44 932.5 443C925.99 443.314 922.434 444.46 916 445.5C904.052 447.43 897.529 452.335 885.5 451C878.009 450.168 874.377 447.048 867 445.5C858.158 443.645 853.031 443.263 844 443C831.665 442.641 824.838 445.729 812.5 445.5C802.496 445.315 796.932 444.216 787 443C774.254 441.44 766.858 441.491 754.5 438C742.705 434.668 737.438 428.776 725.5 426C717.078 424.041 712.137 423.91 703.5 423.5C697.259 423.204 693.689 422.639 687.5 423.5C678.692 424.725 674.569 428.624 666 431C656.405 433.66 650.861 434.624 641 436C631.685 437.3 626.359 437.072 617 438C609.962 438.698 606.069 440.221 599 440C593.48 439.827 590.482 438.675 585 438L583.974 437.874C576.233 436.92 571.574 436.346 563.5 436C556.282 435.691 552.159 435.024 545 436C538.806 436.844 535.738 439.595 529.5 440C523.216 440.408 519.722 438.968 513.5 438C500.86 436.033 494.251 432.026 481.5 431C473.909 430.389 469.599 430.501 462 431C453.541 431.556 440.5 434 440.5 434C440.5 434 431.062 435.289 425 436C417.397 436.892 413.076 439.098 405.5 438C398.216 436.944 394.77 433.888 388 431C373.22 424.695 365.733 419.413 351 413C337.169 406.98 329.293 403.821 315 399C293.011 391.583 277.769 395.302 257.5 384C243.677 376.292 238.249 368.523 226 358.5C211.082 346.293 205.579 334.907 188 327C178.02 322.511 171.786 321.351 161 319.5C151.539 317.876 146.097 317.275 136.5 317.5C129.041 317.675 124.933 318.859 117.5 319.5C108.144 320.307 102.427 318.086 93.5 321C89.8436 322.193 88.2375 324.092 84.5 325C79.5667 326.199 76.5284 325.7 71.5 325C66.0538 324.242 63.3347 322.333 58 321C50.8664 319.218 46.8315 318.061 39.5 317.5C34.438 317.113 31.569 317.218 26.5 317.5C20.2127 317.849 16.7802 319.96 10.5 319.5Z" fill="#D5D5D5"/>
</svg>
