<svg width="1728" height="1117" viewBox="0 0 1728 1117" fill="none" xmlns="http://www.w3.org/2000/svg">
<g clip-path="url(#clip0_4064_4932)">
<path d="M-1 4.84375H1742.63V884.849H-1V4.84375Z" fill="url(#paint0_linear_4064_4932)"/>
<path d="M217.961 107.112C217.961 107.388 217.735 107.611 217.457 107.611C217.178 107.611 216.952 107.388 216.952 107.112C216.952 106.837 217.178 106.613 217.457 106.613C217.735 106.613 217.961 106.837 217.961 107.112Z" fill="white"/>
<path d="M271.441 75.1844C271.441 75.4599 271.215 75.6833 270.937 75.6833C270.658 75.6833 270.432 75.4599 270.432 75.1844C270.432 74.9089 270.658 74.6855 270.937 74.6855C271.215 74.6855 271.441 74.9089 271.441 75.1844Z" fill="white"/>
<path d="M408.672 122.078C408.672 122.353 408.446 122.577 408.168 122.577C407.889 122.577 407.663 122.353 407.663 122.078C407.663 121.802 407.889 121.579 408.168 121.579C408.446 121.579 408.672 121.802 408.672 122.078Z" fill="white"/>
<path d="M278.505 189.925C278.505 190.2 278.279 190.424 278 190.424C277.722 190.424 277.496 190.2 277.496 189.925C277.496 189.649 277.722 189.426 278 189.426C278.279 189.426 278.505 189.649 278.505 189.925Z" fill="white"/>
<path d="M647.815 148.019C647.815 148.295 647.589 148.518 647.31 148.518C647.032 148.518 646.806 148.295 646.806 148.019C646.806 147.744 647.032 147.521 647.31 147.521C647.589 147.521 647.815 147.744 647.815 148.019Z" fill="white"/>
<path d="M114.031 206.887C114.031 207.162 113.805 207.385 113.526 207.385C113.248 207.385 113.022 207.162 113.022 206.887C113.022 206.611 113.248 206.388 113.526 206.388C113.805 206.388 114.031 206.611 114.031 206.887Z" fill="white"/>
<path d="M572.137 176.954C572.137 177.229 571.911 177.453 571.632 177.453C571.354 177.453 571.128 177.229 571.128 176.954C571.128 176.678 571.354 176.455 571.632 176.455C571.911 176.455 572.137 176.678 572.137 176.954Z" fill="white"/>
<path d="M517.649 86.16C517.649 86.4355 517.423 86.6589 517.145 86.6589C516.866 86.6589 516.64 86.4355 516.64 86.16C516.64 85.8845 516.866 85.6611 517.145 85.6611C517.423 85.6611 517.649 85.8845 517.649 86.16Z" fill="white"/>
<path d="M1516.6 121.081C1516.6 121.356 1516.38 121.58 1516.1 121.58C1515.82 121.58 1515.59 121.356 1515.59 121.081C1515.59 120.805 1515.82 120.582 1516.1 120.582C1516.38 120.582 1516.6 120.805 1516.6 121.081Z" fill="white"/>
<path d="M1393.5 173.961C1393.5 174.236 1393.27 174.46 1393 174.46C1392.72 174.46 1392.49 174.236 1392.49 173.961C1392.49 173.685 1392.72 173.462 1393 173.462C1393.27 173.462 1393.5 173.685 1393.5 173.961Z" fill="white"/>
<path d="M1485.32 263.758C1485.32 264.033 1485.1 264.257 1484.82 264.257C1484.54 264.257 1484.31 264.033 1484.31 263.758C1484.31 263.482 1484.54 263.259 1484.82 263.259C1485.1 263.259 1485.32 263.482 1485.32 263.758Z" fill="white"/>
<path d="M1634.66 207.884C1634.66 208.159 1634.44 208.383 1634.16 208.383C1633.88 208.383 1633.65 208.159 1633.65 207.884C1633.65 207.608 1633.88 207.385 1634.16 207.385C1634.44 207.385 1634.66 207.608 1634.66 207.884Z" fill="white"/>
<path d="M1635.67 130.06C1635.67 130.336 1635.45 130.559 1635.17 130.559C1634.89 130.559 1634.66 130.336 1634.66 130.06C1634.66 129.785 1634.89 129.562 1635.17 129.562C1635.45 129.562 1635.67 129.785 1635.67 130.06Z" fill="white"/>
<path d="M1701.26 70.1961C1701.26 70.4716 1701.03 70.695 1700.76 70.695C1700.48 70.695 1700.25 70.4716 1700.25 70.1961C1700.25 69.9206 1700.48 69.6973 1700.76 69.6973C1701.03 69.6973 1701.26 69.9206 1701.26 70.1961Z" fill="white"/>
<path d="M1571.09 42.2596C1571.09 42.5351 1570.87 42.7585 1570.59 42.7585C1570.31 42.7585 1570.08 42.5351 1570.08 42.2596C1570.08 41.9841 1570.31 41.7607 1570.59 41.7607C1570.87 41.7607 1571.09 41.9841 1571.09 42.2596Z" fill="white"/>
<path d="M1350.11 87.1571C1350.11 87.4326 1349.88 87.6559 1349.61 87.6559C1349.33 87.6559 1349.1 87.4326 1349.1 87.1571C1349.1 86.8816 1349.33 86.6582 1349.61 86.6582C1349.88 86.6582 1350.11 86.8816 1350.11 87.1571Z" fill="white"/>
<path d="M1369.28 29.2889C1369.28 29.5644 1369.06 29.7878 1368.78 29.7878C1368.5 29.7878 1368.27 29.5644 1368.27 29.2889C1368.27 29.0134 1368.5 28.79 1368.78 28.79C1369.06 28.79 1369.28 29.0134 1369.28 29.2889Z" fill="white"/>
<path d="M1784 152.011C1784 152.286 1783.78 152.509 1783.5 152.509C1783.22 152.509 1782.99 152.286 1782.99 152.011C1782.99 151.735 1783.22 151.512 1783.5 151.512C1783.78 151.512 1784 151.735 1784 152.011Z" fill="white"/>
<path d="M775.964 175.956C775.964 176.231 775.738 176.455 775.459 176.455C775.181 176.455 774.955 176.231 774.955 175.956C774.955 175.68 775.181 175.457 775.459 175.457C775.738 175.457 775.964 175.68 775.964 175.956Z" fill="white"/>
<path d="M834.489 123.076C834.489 123.352 834.263 123.575 833.984 123.575C833.705 123.575 833.48 123.352 833.48 123.076C833.48 122.801 833.705 122.577 833.984 122.577C834.263 122.577 834.489 122.801 834.489 123.076Z" fill="white"/>
<path d="M893.014 70.1961C893.014 70.4716 892.788 70.695 892.509 70.695C892.23 70.695 892.005 70.4716 892.005 70.1961C892.005 69.9206 892.23 69.6973 892.509 69.6973C892.788 69.6973 893.014 69.9206 893.014 70.1961Z" fill="white"/>
<path d="M700.286 74.1864C700.286 74.4619 700.06 74.6852 699.781 74.6852C699.502 74.6852 699.277 74.4619 699.277 74.1864C699.277 73.9109 699.502 73.6875 699.781 73.6875C700.06 73.6875 700.286 73.9109 700.286 74.1864Z" fill="white"/>
<path d="M507.558 78.1776C507.558 78.4531 507.332 78.6765 507.053 78.6765C506.774 78.6765 506.549 78.4531 506.549 78.1776C506.549 77.9021 506.774 77.6787 507.053 77.6787C507.332 77.6787 507.558 77.9021 507.558 78.1776Z" fill="white"/>
<path d="M277.495 130.06C277.495 130.336 277.269 130.559 276.991 130.559C276.712 130.559 276.486 130.336 276.486 130.06C276.486 129.785 276.712 129.562 276.991 129.562C277.269 129.562 277.495 129.785 277.495 130.06Z" fill="white"/>
<path d="M47.4329 181.942C47.4329 182.218 47.207 182.441 46.9284 182.441C46.6497 182.441 46.4238 182.218 46.4238 181.942C46.4238 181.667 46.6497 181.443 46.9284 181.443C47.207 181.443 47.4329 181.667 47.4329 181.942Z" fill="white"/>
<path d="M78.7132 85.162C78.7132 85.4375 78.4873 85.6608 78.2087 85.6608C77.9301 85.6608 77.7042 85.4375 77.7042 85.162C77.7042 84.8864 77.9301 84.6631 78.2087 84.6631C78.4873 84.6631 78.7132 84.8864 78.7132 85.162Z" fill="white"/>
<path d="M941.447 215.866C941.447 216.142 941.221 216.365 940.942 216.365C940.664 216.365 940.438 216.142 940.438 215.866C940.438 215.591 940.664 215.367 940.942 215.367C941.221 215.367 941.447 215.591 941.447 215.866Z" fill="white"/>
<path d="M1079.69 154.006C1079.69 154.281 1079.46 154.505 1079.18 154.505C1078.9 154.505 1078.68 154.281 1078.68 154.006C1078.68 153.73 1078.9 153.507 1079.18 153.507C1079.46 153.507 1079.69 153.73 1079.69 154.006Z" fill="white"/>
<path d="M1185.64 238.813C1185.64 239.089 1185.41 239.312 1185.13 239.312C1184.85 239.312 1184.63 239.089 1184.63 238.813C1184.63 238.538 1184.85 238.314 1185.13 238.314C1185.41 238.314 1185.64 238.538 1185.64 238.813Z" fill="white"/>
<path d="M1224.99 174.959C1224.99 175.234 1224.76 175.458 1224.48 175.458C1224.21 175.458 1223.98 175.234 1223.98 174.959C1223.98 174.683 1224.21 174.46 1224.48 174.46C1224.76 174.46 1224.99 174.683 1224.99 174.959Z" fill="white"/>
<path d="M1130.14 69.1981C1130.14 69.4736 1129.91 69.697 1129.63 69.697C1129.36 69.697 1129.13 69.4736 1129.13 69.1981C1129.13 68.9226 1129.36 68.6992 1129.63 68.6992C1129.91 68.6992 1130.14 68.9226 1130.14 69.1981Z" fill="white"/>
<path d="M1037.31 188.927C1037.31 189.202 1037.08 189.425 1036.8 189.425C1036.52 189.425 1036.3 189.202 1036.3 188.927C1036.3 188.651 1036.52 188.428 1036.8 188.428C1037.08 188.428 1037.31 188.651 1037.31 188.927Z" fill="white"/>
<path d="M944.475 308.655C944.475 308.931 944.249 309.154 943.97 309.154C943.692 309.154 943.466 308.931 943.466 308.655C943.466 308.38 943.692 308.156 943.97 308.156C944.249 308.156 944.475 308.38 944.475 308.655Z" fill="white"/>
<path d="M789.081 266.751C789.081 267.026 788.855 267.25 788.577 267.25C788.298 267.25 788.072 267.026 788.072 266.751C788.072 266.475 788.298 266.252 788.577 266.252C788.855 266.252 789.081 266.475 789.081 266.751Z" fill="white"/>
<path d="M608.462 265.753C608.462 266.028 608.236 266.252 607.957 266.252C607.679 266.252 607.453 266.028 607.453 265.753C607.453 265.477 607.679 265.254 607.957 265.254C608.236 265.254 608.462 265.477 608.462 265.753Z" fill="white"/>
<path d="M428.851 308.655C428.851 308.931 428.626 309.154 428.347 309.154C428.068 309.154 427.842 308.931 427.842 308.655C427.842 308.38 428.068 308.156 428.347 308.156C428.626 308.156 428.851 308.38 428.851 308.655Z" fill="white"/>
<path d="M218.97 264.755C218.97 265.03 218.745 265.254 218.466 265.254C218.187 265.254 217.961 265.03 217.961 264.755C217.961 264.479 218.187 264.256 218.466 264.256C218.745 264.256 218.97 264.479 218.97 264.755Z" fill="white"/>
<path d="M1258.29 286.705C1258.29 286.98 1258.06 287.204 1257.78 287.204C1257.51 287.204 1257.28 286.98 1257.28 286.705C1257.28 286.429 1257.51 286.206 1257.78 286.206C1258.06 286.206 1258.29 286.429 1258.29 286.705Z" fill="white"/>
<path d="M1349.1 237.816C1349.1 238.092 1348.88 238.315 1348.6 238.315C1348.32 238.315 1348.09 238.092 1348.09 237.816C1348.09 237.541 1348.32 237.317 1348.6 237.317C1348.88 237.317 1349.1 237.541 1349.1 237.816Z" fill="white"/>
<path d="M1226 87.1571C1226 87.4326 1225.77 87.6559 1225.49 87.6559C1225.22 87.6559 1224.99 87.4326 1224.99 87.1571C1224.99 86.8816 1225.22 86.6582 1225.49 86.6582C1225.77 86.6582 1226 86.8816 1226 87.1571Z" fill="white"/>
<path d="M1102.89 -63.5011C1102.89 -63.2256 1102.67 -63.0023 1102.39 -63.0023C1102.11 -63.0023 1101.89 -63.2256 1101.89 -63.5011C1101.89 -63.7766 1102.11 -64 1102.39 -64C1102.67 -64 1102.89 -63.7766 1102.89 -63.5011Z" fill="white"/>
<path d="M742.665 129.062C742.665 129.338 742.439 129.561 742.16 129.561C741.882 129.561 741.656 129.338 741.656 129.062C741.656 128.787 741.882 128.563 742.16 128.563C742.439 128.563 742.665 128.787 742.665 129.062Z" fill="white"/>
<path d="M429.861 216.863C429.861 217.139 429.635 217.362 429.356 217.362C429.078 217.362 428.852 217.139 428.852 216.863C428.852 216.588 429.078 216.364 429.356 216.364C429.635 216.364 429.861 216.588 429.861 216.863Z" fill="white"/>
<path d="M616.537 155.504C616.537 156.055 616.085 156.501 615.528 156.501C614.971 156.501 614.519 156.055 614.519 155.504C614.519 154.953 614.971 154.506 615.528 154.506C616.085 154.506 616.537 154.953 616.537 155.504Z" fill="white"/>
<path d="M453.071 166.478C453.071 167.029 452.619 167.476 452.062 167.476C451.504 167.476 451.052 167.029 451.052 166.478C451.052 165.927 451.504 165.48 452.062 165.48C452.619 165.48 453.071 165.927 453.071 166.478Z" fill="white"/>
<path d="M166.502 79.6745C166.502 80.2255 166.05 80.6722 165.493 80.6722C164.936 80.6722 164.484 80.2255 164.484 79.6745C164.484 79.1235 164.936 78.6768 165.493 78.6768C166.05 78.6768 166.502 79.1235 166.502 79.6745Z" fill="white"/>
<path d="M199.801 33.779C199.801 34.33 199.349 34.7767 198.792 34.7767C198.235 34.7767 197.783 34.33 197.783 33.779C197.783 33.228 198.235 32.7812 198.792 32.7812C199.349 32.7812 199.801 33.228 199.801 33.779Z" fill="white"/>
<path d="M665.98 236.32C665.98 236.871 665.528 237.318 664.971 237.318C664.413 237.318 663.962 236.871 663.962 236.32C663.962 235.769 664.413 235.322 664.971 235.322C665.528 235.322 665.98 235.769 665.98 236.32Z" fill="white"/>
<path d="M929.341 155.504C929.341 156.055 928.889 156.501 928.332 156.501C927.775 156.501 927.323 156.055 927.323 155.504C927.323 154.953 927.775 154.506 928.332 154.506C928.889 154.506 929.341 154.953 929.341 155.504Z" fill="white"/>
<path d="M1134.18 234.325C1134.18 234.876 1133.73 235.323 1133.17 235.323C1132.61 235.323 1132.16 234.876 1132.16 234.325C1132.16 233.774 1132.61 233.327 1133.17 233.327C1133.73 233.327 1134.18 233.774 1134.18 234.325Z" fill="white"/>
<path d="M1415.7 108.609C1415.7 109.16 1415.25 109.607 1414.69 109.607C1414.13 109.607 1413.68 109.16 1413.68 108.609C1413.68 108.058 1414.13 107.611 1414.69 107.611C1415.25 107.611 1415.7 108.058 1415.7 108.609Z" fill="white"/>
<path d="M1558.98 198.406C1558.98 198.957 1558.53 199.404 1557.98 199.404C1557.42 199.404 1556.97 198.957 1556.97 198.406C1556.97 197.855 1557.42 197.408 1557.98 197.408C1558.53 197.408 1558.98 197.855 1558.98 198.406Z" fill="white"/>
<path d="M1132.16 438.861C1132.16 439.412 1131.71 439.859 1131.15 439.859C1130.59 439.859 1130.14 439.412 1130.14 438.861C1130.14 438.31 1130.59 437.863 1131.15 437.863C1131.71 437.863 1132.16 438.31 1132.16 438.861Z" fill="white"/>
<path d="M0 884H1728V1117H0V884Z" fill="black"/>
</g>
<defs>
<linearGradient id="paint0_linear_4064_4932" x1="891.501" y1="-64" x2="891.501" y2="1117" gradientUnits="userSpaceOnUse">
<stop offset="0.182292"/>
<stop offset="0.614583" stop-color="white"/>
</linearGradient>
<clipPath id="clip0_4064_4932">
<rect width="1728" height="1117" fill="white"/>
</clipPath>
</defs>
</svg>
