<?xml version="1.0" standalone="no"?>
<!DOCTYPE svg PUBLIC "-//W3C//DTD SVG 20010904//EN"
 "http://www.w3.org/TR/2001/REC-SVG-20010904/DTD/svg10.dtd">
<svg version="1.0" xmlns="http://www.w3.org/2000/svg"
 width="700.000000pt" height="700.000000pt" viewBox="0 0 700.000000 700.000000"
 preserveAspectRatio="xMidYMid meet">
<g transform="translate(0.000000,700.000000) scale(0.100000,-0.100000)"
fill="#000000" stroke="none">
<path d="M2393 6041 c-251 -68 -431 -251 -495 -503 -29 -118 -23 -260 19 -379
69 -200 221 -353 425 -427 67 -25 85 -27 223 -27 145 0 153 2 235 33 111 42
140 63 276 193 193 184 306 245 448 237 88 -4 185 -48 285 -128 35 -29 60 -46
56 -38 -4 7 5 -3 21 -22 68 -87 159 -162 249 -205 244 -118 508 -93 721 68
106 80 186 195 231 332 23 69 27 97 27 205 0 109 -4 136 -27 205 -36 109 -90
196 -168 274 -233 232 -595 265 -866 80 -26 -18 -106 -92 -178 -165 -112 -113
-141 -136 -209 -170 -74 -36 -86 -39 -166 -39 -80 0 -92 3 -166 39 -69 34 -96
56 -214 176 -152 155 -221 204 -341 245 -114 38 -278 45 -386 16z"/>
<path d="M605 4180 c-84 -9 -196 -47 -273 -92 -31 -18 -91 -67 -133 -108 -137
-136 -206 -317 -196 -510 10 -181 71 -316 201 -446 91 -90 154 -130 271 -170
69 -23 97 -27 195 -28 100 0 124 3 182 26 93 35 167 81 254 158 190 166 223
192 285 225 160 84 299 85 453 4 86 -44 119 -72 171 -144 83 -112 200 -196
340 -242 70 -23 97 -27 210 -27 117 0 138 3 210 28 113 39 182 84 305 201 169
159 280 224 400 233 138 10 250 -48 421 -218 129 -127 202 -176 324 -217 71
-24 95 -27 215 -27 120 0 145 3 220 28 101 33 168 75 254 159 79 77 130 156
169 261 39 106 49 263 22 380 -37 170 -157 336 -309 430 -219 136 -494 137
-715 2 -58 -36 -106 -80 -229 -210 -239 -252 -465 -252 -704 0 -220 233 -295
279 -501 306 -156 21 -329 -19 -461 -107 -31 -20 -98 -82 -149 -137 -233 -250
-386 -304 -587 -206 -52 25 -94 60 -209 175 -152 152 -211 194 -330 237 -62
22 -93 28 -206 40 -16 2 -61 0 -100 -4z"/>
<path d="M4270 2284 c-112 -29 -218 -91 -305 -178 -92 -91 -141 -170 -177
-286 -19 -61 -23 -97 -23 -195 1 -138 15 -198 76 -316 165 -317 564 -449 888
-294 204 98 344 282 381 503 7 40 8 42 9 13 2 -50 -27 -149 -63 -216 l-32 -61
71 51 c200 144 351 150 542 21 l81 -54 -23 52 c-13 28 -26 67 -29 86 l-6 35
14 -35 c70 -182 187 -313 351 -392 194 -93 406 -90 605 9 111 55 232 179 288
293 56 114 73 184 73 305 0 120 -17 192 -71 300 -68 139 -163 235 -302 305
-202 101 -453 93 -645 -22 -186 -110 -310 -311 -332 -534 -7 -71 -9 -79 -10
-36 -2 73 25 193 59 269 l29 63 -61 -49 c-116 -94 -232 -133 -335 -112 -81 16
-168 61 -237 122 l-58 52 27 -52 c14 -29 25 -55 23 -56 -2 -2 -21 31 -43 73
-56 110 -172 223 -285 280 -47 23 -112 48 -145 57 -75 19 -260 19 -335 -1z
m838 -509 c0 -16 -2 -15 -8 5 -11 34 -11 60 0 35 5 -11 8 -29 8 -40z m9 -72
c-3 -10 -5 -2 -5 17 0 19 2 27 5 18 2 -10 2 -26 0 -35z m10 -100 c-2 -16 -4
-5 -4 22 0 28 2 40 4 28 2 -13 2 -35 0 -50z"/>
</g>
</svg>
