<svg width="1000" height="1000" viewBox="0 0 1000 1000" fill="none" xmlns="http://www.w3.org/2000/svg">
<path d="M195.122 499.58C195.122 525.542 184.966 543.04 168.409 560.51C150.627 579.272 125.462 597.069 97.561 597.069C43.6795 597.069 0 553.422 0 499.58C0 445.739 43.6795 402.092 97.561 402.092C125.462 402.092 150.627 413.796 168.409 432.557C170.707 434.982 172.881 437.525 174.923 440.175C187.59 456.622 195.122 477.222 195.122 499.58Z" fill="currentColor "/>
<path d="M1000 767.673C1000 821.514 956.32 865.161 902.439 865.161C859.391 865.161 822.854 837.3 809.903 798.639C806.644 788.911 804.878 778.498 804.878 767.673C804.878 713.832 848.558 670.185 902.439 670.185C956.32 670.185 1000 713.832 1000 767.673Z" fill="#0495FF"/>
<path d="M731.707 499.58C731.707 553.422 688.028 597.069 634.146 597.069C599.53 597.069 569.125 580.285 551.807 553.216C548.257 547.666 545.257 541.683 542.883 535.324C538.813 524.422 536.585 512.413 536.585 499.58C536.585 445.739 580.265 402.092 634.146 402.092C688.028 402.092 731.707 445.739 731.707 499.58Z" fill="currentColor"/>
<path d="M731.707 231.488C731.707 285.329 688.028 328.976 634.146 328.976C591.098 328.976 554.562 301.116 541.61 262.455C538.351 252.726 536.585 242.313 536.585 231.488C536.585 177.647 580.265 134 634.146 134C688.028 134 731.707 177.647 731.707 231.488Z" fill="#FF1D56"/>
<path d="M463.415 231.488C463.415 256.212 454.204 278.787 439.024 295.972C421.148 316.211 394.992 328.976 365.854 328.976C311.972 328.976 268.293 285.329 268.293 231.488C268.293 177.647 311.972 134 365.854 134C396.663 134 424.137 148.271 442.017 170.558C455.406 187.248 463.415 208.433 463.415 231.488Z" fill="#FF1D56"/>
<path d="M731.707 767.673C731.707 821.514 688.028 865.161 634.146 865.161C580.265 865.161 536.585 821.514 536.585 767.673C536.585 713.832 580.265 670.185 634.146 670.185C688.028 670.185 731.707 713.832 731.707 767.673Z" fill="#0495FF"/>
<path d="M463.415 499.58C463.415 553.422 419.735 597.069 365.854 597.069C337.953 597.069 312.788 579.272 295.006 560.51C278.448 543.04 268.293 525.542 268.293 499.58C268.293 477.222 275.825 456.622 288.492 440.175C290.533 437.525 292.708 434.982 295.006 432.557C312.788 413.796 337.953 402.092 365.854 402.092C419.735 402.092 463.415 445.739 463.415 499.58Z" fill="currentColor"/>
<path d="M174.923 440.175C187.59 456.622 195.122 477.222 195.122 499.58C195.122 525.542 184.966 543.04 168.409 560.51C213.415 517.859 250 517.859 295.006 560.51C278.448 543.04 268.293 525.542 268.293 499.58C268.293 477.222 275.825 456.622 288.492 440.175C248.571 484.855 214.843 484.855 174.923 440.175Z" fill="currentColor"/>
<path d="M443.215 440.175C455.882 456.622 463.415 477.222 463.415 499.58C463.415 525.542 456.281 545.794 439.723 563.265C484.729 520.614 512.977 517.859 557.983 560.51C555.612 558.009 553.573 555.598 551.807 553.216C547.498 547.401 544.813 541.75 542.883 535.324C540.08 525.996 538.868 515.037 536.585 499.58C536.585 477.222 544.118 456.622 556.785 440.175C516.864 484.855 483.136 484.855 443.215 440.175Z" fill="currentColor"/>
<path d="M711.508 708.267C724.175 724.714 731.707 745.315 731.707 767.673C731.707 793.634 724.573 813.887 708.015 831.357C753.022 788.706 781.27 785.952 826.276 828.603C816.729 818.529 812.573 809.944 809.903 798.639C807.942 790.339 806.783 780.572 804.878 767.673C804.878 745.315 812.41 724.714 825.077 708.267C785.157 752.947 751.429 752.947 711.508 708.267Z" fill="#0495FF"/>
<path d="M443.215 172.083C455.882 188.53 463.415 209.13 463.415 231.488C463.415 257.449 457.274 276.535 440.716 294.006C485.722 251.355 512.977 249.767 557.983 292.418C548.436 282.345 544.28 273.759 541.61 262.455C539.65 254.154 538.49 244.387 536.585 231.488C536.585 209.13 544.118 188.53 556.785 172.083C516.864 216.763 483.136 216.763 443.215 172.083Z" fill="#FF1D56"/>
<path d="M463.415 231.488C463.415 257.449 457.274 276.535 440.716 294.006C454.885 277.081 463.415 255.28 463.415 231.488Z" fill="#FF1D56"/>
<path d="M557.983 292.418C550.881 283.565 545.292 273.446 541.61 262.455C544.28 273.759 548.436 282.345 557.983 292.418Z" fill="#FF1D56"/>
<path d="M551.807 553.216C548.257 547.666 545.257 541.683 542.883 535.324C544.813 541.75 547.498 547.401 551.807 553.216Z" fill="currentColor"/>
<path d="M463.415 499.58C463.415 523.923 454.486 546.182 439.723 563.265C456.281 545.794 463.415 525.542 463.415 499.58Z" fill="currentColor"/>
<path d="M731.707 767.673C731.707 792.015 722.779 814.274 708.015 831.357C724.573 813.887 731.707 793.634 731.707 767.673Z" fill="#0495FF"/>
<path d="M826.276 828.603C819.173 819.749 813.585 809.631 809.903 798.639C812.573 809.944 816.729 818.529 826.276 828.603Z" fill="#0495FF"/>
<path d="M365.854 134C419.735 134 463.415 177.647 463.415 231.488C463.415 274.504 435.533 311.014 396.844 323.956C387.107 327.213 376.687 328.976 365.854 328.976C311.972 328.976 268.293 285.329 268.293 231.488C268.293 177.647 311.972 134 365.854 134Z" fill="#FF1D56"/>
<path d="M365.854 402.092C419.735 402.092 463.415 445.739 463.415 499.58C463.415 553.422 419.735 597.069 365.854 597.069C311.972 597.069 268.293 553.422 268.293 499.58C268.293 445.739 311.972 402.092 365.854 402.092Z" fill="currentColor"/>
<path d="M306.404 422.277C322.863 409.62 343.479 402.092 365.854 402.092C391.834 402.092 412.102 409.222 429.586 425.767C386.903 380.795 384.146 352.568 426.829 307.595C416.748 317.135 408.156 321.288 396.844 323.956C388.536 325.915 378.762 327.073 365.854 328.976C343.479 328.976 322.863 321.45 306.404 308.793C351.117 348.684 351.117 382.386 306.404 422.277Z" fill="#FF1D56" fill-opacity="0.5"/>
<path d="M365.854 402.092C390.214 402.092 412.49 411.015 429.586 425.767C412.102 409.222 391.834 402.092 365.854 402.092Z" fill="currentColor"/>
<path d="M426.829 307.595C417.969 314.692 407.843 320.276 396.844 323.956C408.156 321.288 416.748 317.135 426.829 307.595Z" fill="#FF1D56"/>
<path d="M634.146 402.092C688.028 402.092 731.707 445.739 731.707 499.58C731.707 542.597 703.826 579.107 665.136 592.048C655.4 595.305 644.979 597.069 634.146 597.069C580.265 597.069 536.585 553.422 536.585 499.58C536.585 445.739 580.265 402.092 634.146 402.092Z" fill="currentColor"/>
<path d="M634.146 670.185C688.028 670.185 731.707 713.832 731.707 767.673C731.707 821.514 688.028 865.161 634.146 865.161C580.265 865.161 536.585 821.514 536.585 767.673C536.585 713.832 580.265 670.185 634.146 670.185Z" fill="#0495FF"/>
<path d="M574.697 690.37C591.156 677.712 611.771 670.185 634.146 670.185C660.127 670.185 680.395 677.314 697.879 693.86C655.196 648.887 652.439 620.66 695.122 575.687C685.041 585.228 676.449 589.38 665.136 592.048C656.829 594.007 647.055 595.165 634.146 597.069C611.771 597.069 591.156 589.543 574.697 576.885C619.41 616.776 619.41 650.479 574.697 690.37Z" fill="#0495FF" fill-opacity="0.5"/>
<path d="M634.146 670.185C658.507 670.185 680.783 679.108 697.879 693.86C680.395 677.314 660.127 670.185 634.146 670.185Z" fill="#0495FF"/>
<path d="M695.122 575.687C686.262 582.785 676.136 588.369 665.136 592.048C676.449 589.38 685.041 585.228 695.122 575.687Z" fill="currentColor"/>
</svg>
