<svg width="919" height="216" viewBox="0 0 919 216" fill="none" xmlns="http://www.w3.org/2000/svg">
<rect width="919" height="216" fill="white"/>
<g clip-path="url(#clip0_4993_252)">
<path d="M747.85 195H749.85L750.746 192.168H755.114L756.026 195H758.234L754.458 183.56H751.674L747.85 195ZM752.938 185.304L754.618 190.616H751.242L752.938 185.304ZM766.61 195.22C769.99 195.22 772.07 193.2 772.07 190.66C772.07 187.7 770.29 186.76 766.83 186.32C764.63 186 764.17 185.52 764.17 184.5C764.17 183.54 764.89 182.88 766.31 182.88C767.73 182.88 768.49 183.48 768.69 184.78H771.67C771.41 181.94 769.53 180.5 766.31 180.5C763.15 180.5 761.11 182.32 761.11 184.76C761.11 187.52 762.61 188.62 766.27 189.1C768.37 189.42 768.97 189.82 768.97 190.96C768.97 192.08 768.03 192.86 766.61 192.86C764.49 192.86 763.95 191.8 763.81 190.52H760.71C760.89 193.38 762.69 195.22 766.61 195.22ZM772.883 195H775.763V184.54H772.883V195ZM774.303 183.12C775.243 183.12 775.963 182.44 775.963 181.54C775.963 180.64 775.243 179.96 774.303 179.96C773.383 179.96 772.663 180.64 772.663 181.54C772.663 182.44 773.383 183.12 774.303 183.12ZM777.168 195H780.048V179.8H777.168V195ZM784.174 195H787.434L791.234 184.54H788.434L785.954 192.02L783.454 184.54H780.354L784.174 195ZM795.771 195.22C798.631 195.22 800.431 193.96 800.771 191.7H798.031C797.851 192.58 797.191 193.16 795.851 193.16C794.271 193.16 793.331 192.16 793.251 190.42H800.791V189.62C800.791 185.88 798.391 184.3 795.691 184.3C792.651 184.3 790.311 186.44 790.311 189.74V189.9C790.311 193.24 792.611 195.22 795.771 195.22ZM793.291 188.64C793.511 187.16 794.391 186.3 795.691 186.3C797.071 186.3 797.871 187.06 797.971 188.64H793.291ZM801.35 195H804.25V189.76C804.25 187.76 805.49 187.06 807.63 187.08V184.38C805.93 184.4 804.91 185.14 804.25 186.54V184.54H801.35V195ZM808.453 195H814.333C817.633 195 819.353 193.62 819.353 191V190.92C819.353 189 818.353 187.94 816.493 187.56C818.093 187.1 818.813 186 818.813 184.5V184.42C818.813 181.98 817.193 180.7 814.073 180.7H808.453V195ZM811.613 192.76V188.66H813.673C815.433 188.66 816.153 189.34 816.153 190.66V190.74C816.153 192.04 815.433 192.76 813.833 192.76H811.613ZM811.613 186.58V182.92H813.533C815.053 182.92 815.733 183.46 815.733 184.66V184.74C815.733 186.02 815.113 186.58 813.553 186.58H811.613ZM822.857 195.22C824.497 195.22 825.417 194.58 826.017 193.74V195H828.837V188.18C828.837 185.34 827.017 184.3 824.457 184.3C821.897 184.3 819.937 185.4 819.757 187.88H822.497C822.617 186.98 823.137 186.4 824.277 186.4C825.597 186.4 825.977 187.08 825.977 188.32V188.74H824.797C821.597 188.74 819.357 189.66 819.357 192.1C819.357 194.3 820.957 195.22 822.857 195.22ZM823.717 193.2C822.657 193.2 822.197 192.7 822.197 191.94C822.197 190.82 823.177 190.46 824.857 190.46H825.977V191.34C825.977 192.5 824.997 193.2 823.717 193.2ZM834.726 195.22C837.766 195.22 839.566 193.5 839.726 191.02H837.106C836.966 192.36 836.026 193.04 834.866 193.04C833.246 193.04 832.306 191.96 832.306 189.86V189.7C832.306 187.7 833.306 186.58 834.806 186.58C835.986 186.58 836.726 187.14 836.926 188.36H839.666C839.406 185.36 837.166 184.3 834.746 184.3C831.766 184.3 829.346 186.36 829.346 189.74V189.9C829.346 193.32 831.666 195.22 834.726 195.22ZM840.208 195H843.108V190.06L846.568 195H849.848L845.748 189.3L849.548 184.54H846.468L843.108 188.96V179.8H840.208V195ZM853.088 195H855.216V190.648H856.816C859.264 190.648 861.008 189.576 861.008 187.16V187.096C861.008 184.696 859.328 183.56 856.768 183.56H853.088V195ZM855.216 189.112V185.208H856.768C858.128 185.208 858.928 185.736 858.928 187.096V187.16C858.928 188.424 858.176 189.112 856.768 189.112H855.216ZM861.606 195H863.542V190.648C863.542 188.872 864.566 188.328 866.262 188.312V186.504C864.854 186.52 864.07 187.144 863.542 188.2V186.632H861.606V195ZM870.481 193.656C869.009 193.656 868.161 192.584 868.161 190.872V190.744C868.161 189.016 869.041 187.976 870.481 187.976C871.921 187.976 872.785 189.032 872.785 190.76V190.872C872.785 192.584 871.921 193.656 870.481 193.656ZM870.465 195.16C872.929 195.16 874.769 193.464 874.769 190.856V190.728C874.769 188.168 872.929 186.456 870.481 186.456C868.017 186.456 866.177 188.184 866.177 190.776V190.904C866.177 193.448 868.001 195.16 870.465 195.16ZM878.582 195.16C879.814 195.16 880.886 194.424 881.334 193.592V195H883.27V182.76H881.334V187.912C880.87 187.08 880.022 186.456 878.662 186.456C876.486 186.456 874.902 188.152 874.902 190.824V190.952C874.902 193.672 876.486 195.16 878.582 195.16ZM879.062 193.624C877.814 193.624 876.886 192.744 876.886 190.904V190.776C876.886 188.968 877.718 187.976 879.142 187.976C880.55 187.976 881.398 188.888 881.398 190.728V190.856C881.398 192.728 880.406 193.624 879.062 193.624ZM887.299 195.16C888.659 195.16 889.539 194.504 889.955 193.688V195H891.891V186.632H889.955V191.608C889.955 192.936 889.043 193.608 888.003 193.608C886.883 193.608 886.355 193.032 886.355 191.768V186.632H884.419V191.992C884.419 194.216 885.651 195.16 887.299 195.16ZM896.779 195.16C899.051 195.16 900.507 193.8 900.651 191.88H898.875C898.763 193.064 897.883 193.672 896.859 193.672C895.435 193.672 894.539 192.712 894.539 190.888V190.76C894.539 189.032 895.483 188.008 896.811 188.008C897.835 188.008 898.571 188.472 898.731 189.592H900.603C900.379 187.288 898.635 186.456 896.779 186.456C894.443 186.456 892.555 188.136 892.555 190.792V190.92C892.555 193.592 894.379 195.16 896.779 195.16ZM904.094 195.144C904.686 195.144 905.102 195.048 905.406 194.936V193.4C905.134 193.512 904.846 193.56 904.462 193.56C903.854 193.56 903.502 193.224 903.502 192.488V188.088H905.342V186.632H903.502V184.792H901.566V186.632H900.446V188.088H901.566V192.664C901.566 194.248 902.43 195.144 904.094 195.144Z" fill="black"/>
<path d="M813.963 42H817.183V36.8H819.003C822.263 36.8 824.363 35.36 824.363 32.34V32.26C824.363 29.24 822.383 27.7 818.903 27.7H813.963V42ZM817.183 34.54V30.16H818.823C820.363 30.16 821.243 30.76 821.243 32.28V32.36C821.243 33.78 820.403 34.54 818.823 34.54H817.183ZM829.47 40.02C827.83 40.02 826.91 38.82 826.91 36.82V36.66C826.91 34.66 827.87 33.5 829.47 33.5C831.09 33.5 832.03 34.7 832.03 36.7V36.84C832.03 38.82 831.09 40.02 829.47 40.02ZM829.45 42.22C832.59 42.22 834.97 40.12 834.97 36.82V36.66C834.97 33.4 832.61 31.3 829.47 31.3C826.33 31.3 823.95 33.44 823.95 36.72V36.88C823.95 40.14 826.33 42.22 829.45 42.22ZM837.501 42H840.381L842.301 35.44L844.081 42H846.921L850.221 31.54H847.441L845.461 38.58L843.621 31.54H841.241L839.221 38.58L837.361 31.54H834.321L837.501 42ZM854.894 42.22C857.754 42.22 859.554 40.96 859.894 38.7H857.154C856.974 39.58 856.314 40.16 854.974 40.16C853.394 40.16 852.454 39.16 852.374 37.42H859.914V36.62C859.914 32.88 857.514 31.3 854.814 31.3C851.774 31.3 849.434 33.44 849.434 36.74V36.9C849.434 40.24 851.734 42.22 854.894 42.22ZM852.414 35.64C852.634 34.16 853.514 33.3 854.814 33.3C856.194 33.3 856.994 34.06 857.094 35.64H852.414ZM860.472 42H863.372V36.76C863.372 34.76 864.612 34.06 866.752 34.08V31.38C865.052 31.4 864.032 32.14 863.372 33.54V31.54H860.472V42ZM867.395 42H870.275V31.54H867.395V42ZM868.815 30.12C869.755 30.12 870.475 29.44 870.475 28.54C870.475 27.64 869.755 26.96 868.815 26.96C867.895 26.96 867.175 27.64 867.175 28.54C867.175 29.44 867.895 30.12 868.815 30.12ZM871.6 42H874.5V35.96C874.5 34.42 875.44 33.66 876.68 33.66C877.96 33.66 878.52 34.34 878.52 35.76V42H881.42V35.34C881.42 32.54 879.96 31.3 877.9 31.3C876.16 31.3 875.02 32.16 874.5 33.2V31.54H871.6V42ZM887.205 45.86C890.645 45.86 892.705 44.28 892.725 41.18V31.54H889.845V33.1C889.245 32.04 888.225 31.3 886.525 31.3C883.925 31.3 881.925 33.4 881.925 36.4V36.54C881.925 39.64 883.945 41.54 886.485 41.54C888.025 41.54 889.265 40.62 889.845 39.6V41.18C889.845 42.82 888.965 43.74 887.205 43.74C885.725 43.74 885.065 43.14 884.885 42.22H882.005C882.285 44.38 883.825 45.86 887.205 45.86ZM887.345 39.36C885.905 39.36 884.885 38.28 884.885 36.54V36.38C884.885 34.66 885.785 33.5 887.405 33.5C888.985 33.5 889.925 34.58 889.925 36.36V36.5C889.925 38.28 888.865 39.36 887.345 39.36ZM766.689 64H769.589V57.82C769.589 56.4 770.489 55.68 771.609 55.68C772.629 55.68 773.249 56.28 773.249 57.62V64H776.129V57.82C776.129 56.4 777.029 55.68 778.149 55.68C779.189 55.68 779.789 56.28 779.789 57.62V64H782.669V57.3C782.669 54.52 781.169 53.3 779.229 53.3C777.909 53.3 776.549 53.86 775.709 55.12C775.209 53.88 774.169 53.3 772.789 53.3C771.229 53.3 770.109 54.16 769.589 55.14V53.54H766.689V64ZM783.886 64H786.766V53.54H783.886V64ZM785.306 52.12C786.246 52.12 786.966 51.44 786.966 50.54C786.966 49.64 786.246 48.96 785.306 48.96C784.386 48.96 783.666 49.64 783.666 50.54C783.666 51.44 784.386 52.12 785.306 52.12ZM791.891 64.22C794.651 64.22 796.291 63.04 796.291 60.78C796.291 58.54 794.851 57.88 792.231 57.5C790.711 57.28 790.211 57.02 790.211 56.36C790.211 55.72 790.751 55.28 791.691 55.28C792.691 55.28 793.171 55.68 793.331 56.54H795.991C795.731 54.14 793.991 53.3 791.671 53.3C789.531 53.3 787.531 54.38 787.531 56.56C787.531 58.6 788.611 59.4 791.391 59.82C792.891 60.04 793.511 60.34 793.511 61.06C793.511 61.78 792.991 62.2 791.871 62.2C790.611 62.2 790.151 61.66 790.031 60.72H787.331C787.431 62.98 789.071 64.22 791.891 64.22ZM800.59 64.22C803.35 64.22 804.99 63.04 804.99 60.78C804.99 58.54 803.55 57.88 800.93 57.5C799.41 57.28 798.91 57.02 798.91 56.36C798.91 55.72 799.45 55.28 800.39 55.28C801.39 55.28 801.87 55.68 802.03 56.54H804.69C804.43 54.14 802.69 53.3 800.37 53.3C798.23 53.3 796.23 54.38 796.23 56.56C796.23 58.6 797.31 59.4 800.09 59.82C801.59 60.04 802.21 60.34 802.21 61.06C802.21 61.78 801.69 62.2 800.57 62.2C799.31 62.2 798.85 61.66 798.73 60.72H796.03C796.13 62.98 797.77 64.22 800.59 64.22ZM805.569 64H808.449V53.54H805.569V64ZM806.989 52.12C807.929 52.12 808.649 51.44 808.649 50.54C808.649 49.64 807.929 48.96 806.989 48.96C806.069 48.96 805.349 49.64 805.349 50.54C805.349 51.44 806.069 52.12 806.989 52.12ZM814.654 62.02C813.014 62.02 812.094 60.82 812.094 58.82V58.66C812.094 56.66 813.054 55.5 814.654 55.5C816.274 55.5 817.214 56.7 817.214 58.7V58.84C817.214 60.82 816.274 62.02 814.654 62.02ZM814.634 64.22C817.774 64.22 820.154 62.12 820.154 58.82V58.66C820.154 55.4 817.794 53.3 814.654 53.3C811.514 53.3 809.134 55.44 809.134 58.72V58.88C809.134 62.14 811.514 64.22 814.634 64.22ZM820.758 64H823.658V57.96C823.658 56.42 824.598 55.66 825.838 55.66C827.118 55.66 827.678 56.34 827.678 57.76V64H830.578V57.34C830.578 54.54 829.118 53.3 827.058 53.3C825.318 53.3 824.178 54.16 823.658 55.2V53.54H820.758V64ZM831.523 59.52H836.643V57.22H831.523V59.52ZM842.408 64.22C845.448 64.22 847.248 62.5 847.408 60.02H844.788C844.648 61.36 843.708 62.04 842.548 62.04C840.928 62.04 839.988 60.96 839.988 58.86V58.7C839.988 56.7 840.988 55.58 842.488 55.58C843.668 55.58 844.408 56.14 844.608 57.36H847.348C847.088 54.36 844.848 53.3 842.428 53.3C839.448 53.3 837.028 55.36 837.028 58.74V58.9C837.028 62.32 839.348 64.22 842.408 64.22ZM847.89 64H850.79V58.76C850.79 56.76 852.03 56.06 854.17 56.08V53.38C852.47 53.4 851.45 54.14 850.79 55.54V53.54H847.89V64ZM854.814 64H857.694V53.54H854.814V64ZM856.234 52.12C857.174 52.12 857.894 51.44 857.894 50.54C857.894 49.64 857.174 48.96 856.234 48.96C855.314 48.96 854.594 49.64 854.594 50.54C854.594 51.44 855.314 52.12 856.234 52.12ZM862.839 64.2C863.619 64.2 864.199 64.06 864.599 63.92V61.68C864.259 61.82 863.939 61.88 863.499 61.88C862.759 61.88 862.339 61.48 862.339 60.64V55.6H864.539V53.54H862.339V51.28H859.459V53.54H858.119V55.6H859.459V60.9C859.459 63.08 860.639 64.2 862.839 64.2ZM865.298 64H868.178V53.54H865.298V64ZM866.718 52.12C867.658 52.12 868.378 51.44 868.378 50.54C868.378 49.64 867.658 48.96 866.718 48.96C865.798 48.96 865.078 49.64 865.078 50.54C865.078 51.44 865.798 52.12 866.718 52.12ZM874.243 64.22C877.283 64.22 879.083 62.5 879.243 60.02H876.623C876.483 61.36 875.543 62.04 874.383 62.04C872.763 62.04 871.823 60.96 871.823 58.86V58.7C871.823 56.7 872.823 55.58 874.323 55.58C875.503 55.58 876.243 56.14 876.443 57.36H879.183C878.923 54.36 876.683 53.3 874.263 53.3C871.283 53.3 868.863 55.36 868.863 58.74V58.9C868.863 62.32 871.183 64.22 874.243 64.22ZM882.545 64.22C884.185 64.22 885.105 63.58 885.705 62.74V64H888.525V57.18C888.525 54.34 886.705 53.3 884.145 53.3C881.585 53.3 879.625 54.4 879.445 56.88H882.185C882.305 55.98 882.825 55.4 883.965 55.4C885.285 55.4 885.665 56.08 885.665 57.32V57.74H884.485C881.285 57.74 879.045 58.66 879.045 61.1C879.045 63.3 880.645 64.22 882.545 64.22ZM883.405 62.2C882.345 62.2 881.885 61.7 881.885 60.94C881.885 59.82 882.865 59.46 884.545 59.46H885.665V60.34C885.665 61.5 884.685 62.2 883.405 62.2ZM889.755 64H892.635V48.8H889.755V64ZM791.205 86.22C794.245 86.22 796.045 84.5 796.205 82.02H793.585C793.445 83.36 792.505 84.04 791.345 84.04C789.725 84.04 788.785 82.96 788.785 80.86V80.7C788.785 78.7 789.785 77.58 791.285 77.58C792.465 77.58 793.205 78.14 793.405 79.36H796.145C795.885 76.36 793.645 75.3 791.225 75.3C788.245 75.3 785.825 77.36 785.825 80.74V80.9C785.825 84.32 788.145 86.22 791.205 86.22ZM801.568 84.02C799.928 84.02 799.008 82.82 799.008 80.82V80.66C799.008 78.66 799.968 77.5 801.568 77.5C803.188 77.5 804.128 78.7 804.128 80.7V80.84C804.128 82.82 803.188 84.02 801.568 84.02ZM801.548 86.22C804.688 86.22 807.068 84.12 807.068 80.82V80.66C807.068 77.4 804.708 75.3 801.568 75.3C798.428 75.3 796.048 77.44 796.048 80.72V80.88C796.048 84.14 798.428 86.22 801.548 86.22ZM807.672 86H810.572V79.96C810.572 78.42 811.512 77.66 812.752 77.66C814.032 77.66 814.592 78.34 814.592 79.76V86H817.492V79.34C817.492 76.54 816.032 75.3 813.972 75.3C812.232 75.3 811.092 76.16 810.572 77.2V75.54H807.672V86ZM822.437 86.22C825.197 86.22 826.837 85.04 826.837 82.78C826.837 80.54 825.397 79.88 822.777 79.5C821.257 79.28 820.757 79.02 820.757 78.36C820.757 77.72 821.297 77.28 822.237 77.28C823.237 77.28 823.717 77.68 823.877 78.54H826.537C826.277 76.14 824.537 75.3 822.217 75.3C820.077 75.3 818.077 76.38 818.077 78.56C818.077 80.6 819.157 81.4 821.937 81.82C823.437 82.04 824.057 82.34 824.057 83.06C824.057 83.78 823.537 84.2 822.417 84.2C821.157 84.2 820.697 83.66 820.577 82.72H817.877C817.977 84.98 819.617 86.22 822.437 86.22ZM831.156 86.2C831.936 86.2 832.516 86.06 832.916 85.92V83.68C832.576 83.82 832.256 83.88 831.816 83.88C831.076 83.88 830.656 83.48 830.656 82.64V77.6H832.856V75.54H830.656V73.28H827.776V75.54H826.436V77.6H827.776V82.9C827.776 85.08 828.956 86.2 831.156 86.2ZM833.535 86H836.435V80.76C836.435 78.76 837.675 78.06 839.815 78.08V75.38C838.115 75.4 837.095 76.14 836.435 77.54V75.54H833.535V86ZM843.858 86.22C845.578 86.22 846.638 85.42 847.178 84.36V86H850.058V75.54H847.178V81.68C847.178 83.22 846.218 83.98 844.998 83.98C843.758 83.98 843.178 83.3 843.178 81.88V75.54H840.298V82.28C840.298 85.02 841.818 86.22 843.858 86.22ZM856.025 86.22C859.065 86.22 860.865 84.5 861.025 82.02H858.405C858.265 83.36 857.325 84.04 856.165 84.04C854.545 84.04 853.605 82.96 853.605 80.86V80.7C853.605 78.7 854.605 77.58 856.105 77.58C857.285 77.58 858.025 78.14 858.225 79.36H860.965C860.705 76.36 858.465 75.3 856.045 75.3C853.065 75.3 850.645 77.36 850.645 80.74V80.9C850.645 84.32 852.965 86.22 856.025 86.22ZM865.327 86.2C866.107 86.2 866.687 86.06 867.087 85.92V83.68C866.747 83.82 866.427 83.88 865.987 83.88C865.247 83.88 864.827 83.48 864.827 82.64V77.6H867.027V75.54H864.827V73.28H861.947V75.54H860.607V77.6H861.947V82.9C861.947 85.08 863.127 86.2 865.327 86.2ZM867.786 86H870.666V75.54H867.786V86ZM869.206 74.12C870.146 74.12 870.866 73.44 870.866 72.54C870.866 71.64 870.146 70.96 869.206 70.96C868.286 70.96 867.566 71.64 867.566 72.54C867.566 73.44 868.286 74.12 869.206 74.12ZM876.871 84.02C875.231 84.02 874.311 82.82 874.311 80.82V80.66C874.311 78.66 875.271 77.5 876.871 77.5C878.491 77.5 879.431 78.7 879.431 80.7V80.84C879.431 82.82 878.491 84.02 876.871 84.02ZM876.851 86.22C879.991 86.22 882.371 84.12 882.371 80.82V80.66C882.371 77.4 880.011 75.3 876.871 75.3C873.731 75.3 871.351 77.44 871.351 80.72V80.88C871.351 84.14 873.731 86.22 876.851 86.22ZM882.975 86H885.875V79.96C885.875 78.42 886.815 77.66 888.055 77.66C889.335 77.66 889.895 78.34 889.895 79.76V86H892.795V79.34C892.795 76.54 891.335 75.3 889.275 75.3C887.535 75.3 886.395 76.16 885.875 77.2V75.54H882.975V86ZM801.629 108.2C802.409 108.2 802.989 108.06 803.389 107.92V105.68C803.049 105.82 802.729 105.88 802.289 105.88C801.549 105.88 801.129 105.48 801.129 104.64V99.6H803.329V97.54H801.129V95.28H798.249V97.54H796.909V99.6H798.249V104.9C798.249 107.08 799.429 108.2 801.629 108.2ZM804.008 108H806.908V101.96C806.908 100.42 807.848 99.66 809.088 99.66C810.368 99.66 810.928 100.34 810.928 101.76V108H813.828V101.34C813.828 98.54 812.368 97.3 810.308 97.3C808.568 97.3 807.428 98.16 806.908 99.2V92.8H804.008V108ZM814.972 108H817.872V102.76C817.872 100.76 819.112 100.06 821.252 100.08V97.38C819.552 97.4 818.532 98.14 817.872 99.54V97.54H814.972V108ZM826.501 106.02C824.861 106.02 823.941 104.82 823.941 102.82V102.66C823.941 100.66 824.901 99.5 826.501 99.5C828.121 99.5 829.061 100.7 829.061 102.7V102.84C829.061 104.82 828.121 106.02 826.501 106.02ZM826.481 108.22C829.621 108.22 832.001 106.12 832.001 102.82V102.66C832.001 99.4 829.641 97.3 826.501 97.3C823.361 97.3 820.981 99.44 820.981 102.72V102.88C820.981 106.14 823.361 108.22 826.481 108.22ZM836.085 108.22C837.805 108.22 838.865 107.42 839.405 106.36V108H842.285V97.54H839.405V103.68C839.405 105.22 838.445 105.98 837.225 105.98C835.985 105.98 835.405 105.3 835.405 103.88V97.54H832.525V104.28C832.525 107.02 834.045 108.22 836.085 108.22ZM848.151 111.86C851.591 111.86 853.651 110.28 853.671 107.18V97.54H850.791V99.1C850.191 98.04 849.171 97.3 847.471 97.3C844.871 97.3 842.871 99.4 842.871 102.4V102.54C842.871 105.64 844.891 107.54 847.431 107.54C848.971 107.54 850.211 106.62 850.791 105.6V107.18C850.791 108.82 849.911 109.74 848.151 109.74C846.671 109.74 846.011 109.14 845.831 108.22H842.951C843.231 110.38 844.771 111.86 848.151 111.86ZM848.291 105.36C846.851 105.36 845.831 104.28 845.831 102.54V102.38C845.831 100.66 846.731 99.5 848.351 99.5C849.931 99.5 850.871 100.58 850.871 102.36V102.5C850.871 104.28 849.811 105.36 848.291 105.36ZM854.886 108H857.786V101.96C857.786 100.42 858.726 99.66 859.966 99.66C861.246 99.66 861.806 100.34 861.806 101.76V108H864.706V101.34C864.706 98.54 863.246 97.3 861.186 97.3C859.446 97.3 858.306 98.16 857.786 99.2V92.8H854.886V108ZM870.731 106.02C869.091 106.02 868.171 104.82 868.171 102.82V102.66C868.171 100.66 869.131 99.5 870.731 99.5C872.351 99.5 873.291 100.7 873.291 102.7V102.84C873.291 104.82 872.351 106.02 870.731 106.02ZM870.711 108.22C873.851 108.22 876.231 106.12 876.231 102.82V102.66C876.231 99.4 873.871 97.3 870.731 97.3C867.591 97.3 865.211 99.44 865.211 102.72V102.88C865.211 106.14 867.591 108.22 870.711 108.22ZM880.315 108.22C882.035 108.22 883.095 107.42 883.635 106.36V108H886.515V97.54H883.635V103.68C883.635 105.22 882.675 105.98 881.455 105.98C880.215 105.98 879.635 105.3 879.635 103.88V97.54H876.755V104.28C876.755 107.02 878.275 108.22 880.315 108.22ZM891.561 108.2C892.341 108.2 892.921 108.06 893.321 107.92V105.68C892.981 105.82 892.661 105.88 892.221 105.88C891.481 105.88 891.061 105.48 891.061 104.64V99.6H893.261V97.54H891.061V95.28H888.181V97.54H886.841V99.6H888.181V104.9C888.181 107.08 889.361 108.2 891.561 108.2ZM828.893 130H838.533V127.48H832.113V123.92H836.993V121.56H832.113V118.22H838.213V115.7H828.893V130ZM842.667 130.22C844.387 130.22 845.447 129.42 845.987 128.36V130H848.867V119.54H845.987V125.68C845.987 127.22 845.027 127.98 843.807 127.98C842.567 127.98 841.987 127.3 841.987 125.88V119.54H839.107V126.28C839.107 129.02 840.627 130.22 842.667 130.22ZM850.093 130H852.993V124.76C852.993 122.76 854.233 122.06 856.373 122.08V119.38C854.673 119.4 853.653 120.14 852.993 121.54V119.54H850.093V130ZM861.621 128.02C859.981 128.02 859.061 126.82 859.061 124.82V124.66C859.061 122.66 860.021 121.5 861.621 121.5C863.241 121.5 864.181 122.7 864.181 124.7V124.84C864.181 126.82 863.241 128.02 861.621 128.02ZM861.601 130.22C864.741 130.22 867.121 128.12 867.121 124.82V124.66C867.121 121.4 864.761 119.3 861.621 119.3C858.481 119.3 856.101 121.44 856.101 124.72V124.88C856.101 128.14 858.481 130.22 861.601 130.22ZM867.726 133.56H870.626V128.4C871.166 129.42 872.346 130.22 873.966 130.22C876.566 130.22 878.526 128.28 878.526 124.82V124.66C878.526 121.2 876.526 119.3 873.966 119.3C872.426 119.3 871.206 120.18 870.626 121.18V119.54H867.726V133.56ZM873.106 127.96C871.526 127.96 870.526 126.94 870.526 124.84V124.68C870.526 122.58 871.566 121.52 873.086 121.52C874.546 121.52 875.586 122.56 875.586 124.68V124.84C875.586 126.88 874.706 127.96 873.106 127.96ZM883.94 130.22C886.8 130.22 888.6 128.96 888.94 126.7H886.2C886.02 127.58 885.36 128.16 884.02 128.16C882.44 128.16 881.5 127.16 881.42 125.42H888.96V124.62C888.96 120.88 886.56 119.3 883.86 119.3C880.82 119.3 878.48 121.44 878.48 124.74V124.9C878.48 128.24 880.78 130.22 883.94 130.22ZM881.46 123.64C881.68 122.16 882.56 121.3 883.86 121.3C885.24 121.3 886.04 122.06 886.14 123.64H881.46ZM891.061 130.18C892.081 130.18 892.861 129.4 892.861 128.42C892.861 127.46 892.081 126.68 891.061 126.68C890.061 126.68 889.281 127.46 889.281 128.42C889.281 129.4 890.061 130.18 891.061 130.18Z" fill="#ABA6A2"/>
<path d="M21 53.6389V94.6159L131.142 163.359V122.384L21 53.6389Z" fill="black"/>
<path d="M131.142 163.359L72.1486 200H21.0988V163.359L131.142 163.359Z" fill="black"/>
<path d="M21 53.6389L79.7956 17H131.043V53.639L21 53.6389Z" fill="black"/>
<path d="M207.105 152.315C183.666 152.315 172.903 141.314 171.827 124.213H190.363C191.2 131.866 194.429 138.204 207.105 138.204C215.595 138.204 221.216 133.54 221.216 126.844C221.216 120.027 217.628 117.635 205.072 115.722C183.187 112.852 174.218 106.275 174.218 89.7719C174.218 75.1824 186.416 64.3 205.311 64.3C224.564 64.3 235.805 72.9102 237.36 89.8915H219.542C218.346 82.1184 213.801 78.5308 205.311 78.5308C196.82 78.5308 192.515 82.4771 192.515 88.2173C192.515 94.3162 195.266 97.1862 208.42 99.0996C229.109 101.731 239.752 107.351 239.752 125.05C239.752 140.237 227.315 152.315 207.105 152.315ZM244.613 151V88.4565H261.833V151H244.613ZM253.103 79.9658C247.602 79.9658 243.297 75.8999 243.297 70.5185C243.297 65.1371 247.602 61.0712 253.103 61.0712C258.724 61.0712 263.029 65.1371 263.029 70.5185C263.029 75.8999 258.724 79.9658 253.103 79.9658ZM270.234 151V60.1145H287.454V151H270.234ZM312.122 151L289.281 88.4565H307.817L322.765 133.182L337.594 88.4565H354.336L331.614 151H312.122ZM381.467 152.315C362.572 152.315 348.82 140.476 348.82 120.506V119.549C348.82 99.8171 362.811 87.0214 380.989 87.0214C397.133 87.0214 411.483 96.4687 411.483 118.831V123.615H366.399C366.877 134.019 372.498 139.998 381.945 139.998C389.957 139.998 393.904 136.53 394.98 131.268H411.363C409.33 144.782 398.568 152.315 381.467 152.315ZM366.638 112.972H394.621C394.023 103.524 389.24 98.98 380.989 98.98C373.215 98.98 367.954 104.122 366.638 112.972ZM414.821 151V88.4565H432.161V100.415C436.107 92.044 442.206 87.6193 452.371 87.4998V103.644C439.575 103.524 432.161 107.71 432.161 119.668V151H414.821ZM471.407 151L450.599 65.4959H470.211L483.605 124.571L498.194 65.4959H514.697L529.884 124.93L543.756 65.4959H561.694L540.886 151H521.155L505.728 91.9244L490.062 151H471.407ZM587.26 152.315C568.365 152.315 554.613 140.476 554.613 120.506V119.549C554.613 99.8171 568.604 87.0214 586.781 87.0214C602.925 87.0214 617.276 96.4687 617.276 118.831V123.615H572.192C572.67 134.019 578.291 139.998 587.738 139.998C595.75 139.998 599.697 136.53 600.773 131.268H617.156C615.123 144.782 604.36 152.315 587.26 152.315ZM572.431 112.972H600.414C599.816 103.524 595.033 98.98 586.781 98.98C579.008 98.98 573.746 104.122 572.431 112.972ZM657.925 152.315C648.238 152.315 641.183 147.532 637.954 141.074V151H620.614V60.1145H637.954V98.2625C641.422 92.2832 648.717 87.0214 657.925 87.0214C673.232 87.0214 685.19 98.3821 685.19 119.07V120.027C685.19 140.716 673.471 152.315 657.925 152.315ZM652.783 138.802C662.349 138.802 667.611 132.345 667.611 120.147V119.19C667.611 106.514 661.393 100.295 652.663 100.295C643.574 100.295 637.356 106.634 637.356 119.19V120.147C637.356 132.703 643.335 138.802 652.783 138.802Z" fill="black"/>
</g>
<defs>
<clipPath id="clip0_4993_252">
<rect width="885" height="183" fill="white" transform="translate(21 17)"/>
</clipPath>
</defs>
</svg>
