<svg width="122" height="28" viewBox="0 0 122 28" fill="none" xmlns="http://www.w3.org/2000/svg">
<g clip-path="url(#clip0_4994_253)">
<path d="M122 0H0V28H122V0Z" fill="black"/>
<path d="M40.5869 15.2148C40.5869 15.931 40.2826 16.5137 39.6738 16.9629C39.0684 17.4089 38.2448 17.6318 37.2031 17.6318C36.6009 17.6318 36.0752 17.5798 35.626 17.4756C35.18 17.3682 34.7617 17.2331 34.3711 17.0703V15.3271H34.5762C34.9635 15.6364 35.3965 15.874 35.875 16.04C36.3568 16.2061 36.819 16.2891 37.2617 16.2891C37.3757 16.2891 37.5254 16.2793 37.7109 16.2598C37.8965 16.2402 38.0479 16.2077 38.165 16.1621C38.3083 16.1035 38.4255 16.0303 38.5166 15.9424C38.611 15.8545 38.6582 15.7243 38.6582 15.5518C38.6582 15.3923 38.5898 15.2555 38.4531 15.1416C38.3197 15.0244 38.1227 14.9349 37.8623 14.873C37.5889 14.8079 37.2992 14.7477 36.9932 14.6924C36.6904 14.6338 36.4056 14.5605 36.1387 14.4727C35.5267 14.2741 35.0856 14.0055 34.8154 13.667C34.5485 13.3252 34.415 12.902 34.415 12.3975C34.415 11.7204 34.7178 11.1686 35.3232 10.7422C35.932 10.3125 36.7132 10.0977 37.667 10.0977C38.1455 10.0977 38.6175 10.1449 39.083 10.2393C39.5518 10.3304 39.957 10.446 40.2988 10.5859V12.2607H40.0986C39.8057 12.0264 39.446 11.8311 39.0195 11.6748C38.5964 11.5153 38.1634 11.4355 37.7207 11.4355C37.5645 11.4355 37.4082 11.4469 37.252 11.4697C37.099 11.4893 36.9508 11.5283 36.8076 11.5869C36.6807 11.6357 36.5716 11.7106 36.4805 11.8115C36.3893 11.9092 36.3438 12.0215 36.3438 12.1484C36.3438 12.3405 36.417 12.4886 36.5635 12.5928C36.71 12.6937 36.9867 12.7865 37.3936 12.8711C37.6605 12.9264 37.916 12.9801 38.1602 13.0322C38.4076 13.0843 38.6729 13.1559 38.9561 13.2471C39.5127 13.4294 39.9229 13.6784 40.1865 13.9941C40.4535 14.3066 40.5869 14.7135 40.5869 15.2148ZM45.8066 17.5H41.5488V16.2109H42.7402V11.5186H41.5488V10.2295H45.8066V11.5186H44.6152V16.2109H45.8066V17.5ZM52.5791 17.5H47.335V10.2295H49.21V16.0938H52.5791V17.5ZM60.3037 10.2295L57.6523 17.5H55.5527L52.9014 10.2295H54.8691L56.627 15.3369L58.3848 10.2295H60.3037ZM66.6074 17.5H61.3486V10.2295H66.6074V11.6357H63.2139V12.8906H66.3633V14.2969H63.2139V16.0938H66.6074V17.5ZM72.2617 12.4561C72.2617 12.2738 72.2243 12.1175 72.1494 11.9873C72.0745 11.8571 71.946 11.7546 71.7637 11.6797C71.6367 11.6276 71.4886 11.5967 71.3193 11.5869C71.1501 11.5739 70.9531 11.5674 70.7285 11.5674H70.0498V13.5254H70.626C70.9255 13.5254 71.1761 13.5107 71.3779 13.4814C71.5798 13.4521 71.749 13.3854 71.8857 13.2812C72.016 13.1803 72.1104 13.0697 72.1689 12.9492C72.2308 12.8255 72.2617 12.6611 72.2617 12.4561ZM75.1865 17.5H72.8965L70.9141 14.834H70.0498V17.5H68.1846V10.2295H71.3291C71.7588 10.2295 72.1283 10.2539 72.4375 10.3027C72.7467 10.3516 73.0365 10.4574 73.3066 10.6201C73.5801 10.7829 73.7965 10.9945 73.9561 11.2549C74.1188 11.512 74.2002 11.8359 74.2002 12.2266C74.2002 12.7637 74.0749 13.2015 73.8242 13.54C73.5768 13.8786 73.222 14.1602 72.7598 14.3848L75.1865 17.5ZM82.2275 15.2734C82.2275 15.625 82.1559 15.9391 82.0127 16.2158C81.8727 16.4925 81.679 16.722 81.4316 16.9043C81.1452 17.1191 80.8294 17.2721 80.4844 17.3633C80.1426 17.4544 79.708 17.5 79.1807 17.5H76.0068V10.2295H78.8291C79.415 10.2295 79.8431 10.249 80.1133 10.2881C80.3867 10.3271 80.6569 10.4134 80.9238 10.5469C81.2005 10.6868 81.4056 10.8757 81.5391 11.1133C81.6758 11.3477 81.7441 11.6162 81.7441 11.9189C81.7441 12.2705 81.6514 12.5814 81.4658 12.8516C81.2803 13.1185 81.0182 13.3268 80.6797 13.4766V13.5156C81.1549 13.61 81.5309 13.8053 81.8076 14.1016C82.0876 14.3978 82.2275 14.7884 82.2275 15.2734ZM79.8252 12.2852C79.8252 12.1647 79.7943 12.0443 79.7324 11.9238C79.6738 11.8034 79.568 11.7139 79.415 11.6553C79.2783 11.6032 79.1074 11.5755 78.9023 11.5723C78.7005 11.5658 78.4157 11.5625 78.0479 11.5625H77.8721V13.1006H78.165C78.4613 13.1006 78.7135 13.0957 78.9219 13.0859C79.1302 13.0762 79.2946 13.0436 79.415 12.9883C79.5843 12.9134 79.695 12.8174 79.7471 12.7002C79.7992 12.5798 79.8252 12.4414 79.8252 12.2852ZM80.2842 15.2441C80.2842 15.013 80.2386 14.8356 80.1475 14.7119C80.0596 14.585 79.9082 14.4906 79.6934 14.4287C79.5469 14.3864 79.3451 14.3636 79.0879 14.3604C78.8307 14.3571 78.5622 14.3555 78.2822 14.3555H77.8721V16.167H78.0088C78.5361 16.167 78.9137 16.1654 79.1416 16.1621C79.3695 16.1589 79.5794 16.1165 79.7715 16.0352C79.9668 15.9538 80.1003 15.8464 80.1719 15.7129C80.2467 15.5762 80.2842 15.4199 80.2842 15.2441ZM90.3428 17.5H88.4043L87.9014 16.0303H85.2061L84.7031 17.5H82.8135L85.499 10.2295H87.6572L90.3428 17.5ZM87.4473 14.6973L86.5537 12.0898L85.6602 14.6973H87.4473ZM94.6738 17.6416C94.1335 17.6416 93.6338 17.5618 93.1748 17.4023C92.7191 17.2428 92.3268 17.0052 91.998 16.6895C91.6693 16.3737 91.4137 15.9798 91.2314 15.5078C91.0524 15.0358 90.9629 14.4906 90.9629 13.8721C90.9629 13.2959 91.0492 12.7734 91.2217 12.3047C91.3942 11.8359 91.6449 11.4339 91.9736 11.0986C92.2894 10.7764 92.68 10.5273 93.1455 10.3516C93.6143 10.1758 94.1253 10.0879 94.6787 10.0879C94.9847 10.0879 95.2598 10.1058 95.5039 10.1416C95.7513 10.1742 95.9792 10.2181 96.1875 10.2734C96.4056 10.3353 96.6025 10.4053 96.7783 10.4834C96.9574 10.5583 97.1136 10.6283 97.2471 10.6934V12.4561H97.0322C96.9411 12.3779 96.8255 12.2852 96.6855 12.1777C96.5488 12.0703 96.3926 11.9645 96.2168 11.8604C96.0378 11.7562 95.8441 11.6683 95.6357 11.5967C95.4274 11.5251 95.2044 11.4893 94.9668 11.4893C94.7031 11.4893 94.4525 11.5316 94.2148 11.6162C93.9772 11.6976 93.7575 11.8343 93.5557 12.0264C93.3636 12.2119 93.2074 12.4577 93.0869 12.7637C92.9697 13.0697 92.9111 13.4408 92.9111 13.877C92.9111 14.3327 92.9746 14.7135 93.1016 15.0195C93.2318 15.3255 93.3945 15.5664 93.5898 15.7422C93.7884 15.9212 94.0098 16.0498 94.2539 16.1279C94.498 16.2028 94.7389 16.2402 94.9766 16.2402C95.2044 16.2402 95.429 16.2061 95.6504 16.1377C95.875 16.0693 96.0817 15.9766 96.2705 15.8594C96.43 15.765 96.5781 15.6641 96.7148 15.5566C96.8516 15.4492 96.9639 15.3564 97.0518 15.2783H97.2471V17.0166C97.0648 17.098 96.8906 17.1745 96.7246 17.2461C96.5586 17.3177 96.3844 17.3796 96.2021 17.4316C95.9645 17.5 95.7415 17.5521 95.5332 17.5879C95.3249 17.6237 95.0384 17.6416 94.6738 17.6416ZM105.411 17.5H103.111L100.938 14.5898L100.499 15.1221V17.5H98.624V10.2295H100.499V13.5205L103.097 10.2295H105.27L102.428 13.5938L105.411 17.5Z" fill="white"/>
<path d="M10 8.60383V12.6343L21 19.3959V15.3656L10 8.60383Z" fill="white"/>
<path d="M21 19.3959L15.1083 23H10.0099V19.396L21 19.3959Z" fill="white"/>
<path d="M10 8.60383L15.872 5H20.9901V8.60383L10 8.60383Z" fill="white"/>
</g>
<defs>
<clipPath id="clip0_4994_253">
<rect width="122" height="28" fill="white"/>
</clipPath>
</defs>
</svg>
