<?xml version="1.0" standalone="no"?>
<!DOCTYPE svg PUBLIC "-//W3C//DTD SVG 20010904//EN"
 "http://www.w3.org/TR/2001/REC-SVG-20010904/DTD/svg10.dtd">
<svg version="1.0" xmlns="http://www.w3.org/2000/svg"
 width="3615.000000pt" height="3615.000000pt" viewBox="0 0 3615.000000 3615.000000"
 preserveAspectRatio="xMidYMid meet">
<metadata>
Created by Frederik W. Grimm
</metadata>
<g transform="translate(0.000000,3615.000000) scale(0.100000,-0.100000)"
fill="#000000" stroke="none">
<path d="M13015 32542 l-5790 -3608 -3 -4046 -2 -4046 10845 -6768 10845
-6769 -10835 -3 -10835 -2 0 -3615 0 -3615 5035 0 5034 0 5816 3612 5815 3612
0 4041 0 4040 -752 470 c-414 259 -5295 3305 -10847 6770 l-10094 6300 10837
3 10836 2 0 3615 0 3615 -5058 0 -5058 0 -5789 -3608z"/>
</g>
</svg>
