<svg width="885" height="183" viewBox="0 0 885 183" fill="none" xmlns="http://www.w3.org/2000/svg">
<g clip-path="url(#clip0_4044_14958)">
<path d="M726.85 178H728.85L729.746 175.168H734.114L735.026 178H737.234L733.458 166.56H730.674L726.85 178ZM731.938 168.304L733.618 173.616H730.242L731.938 168.304ZM745.61 178.22C748.99 178.22 751.07 176.2 751.07 173.66C751.07 170.7 749.29 169.76 745.83 169.32C743.63 169 743.17 168.52 743.17 167.5C743.17 166.54 743.89 165.88 745.31 165.88C746.73 165.88 747.49 166.48 747.69 167.78H750.67C750.41 164.94 748.53 163.5 745.31 163.5C742.15 163.5 740.11 165.32 740.11 167.76C740.11 170.52 741.61 171.62 745.27 172.1C747.37 172.42 747.97 172.82 747.97 173.96C747.97 175.08 747.03 175.86 745.61 175.86C743.49 175.86 742.95 174.8 742.81 173.52H739.71C739.89 176.38 741.69 178.22 745.61 178.22ZM751.883 178H754.763V167.54H751.883V178ZM753.303 166.12C754.243 166.12 754.963 165.44 754.963 164.54C754.963 163.64 754.243 162.96 753.303 162.96C752.383 162.96 751.663 163.64 751.663 164.54C751.663 165.44 752.383 166.12 753.303 166.12ZM756.168 178H759.048V162.8H756.168V178ZM763.174 178H766.434L770.234 167.54H767.434L764.954 175.02L762.454 167.54H759.354L763.174 178ZM774.771 178.22C777.631 178.22 779.431 176.96 779.771 174.7H777.031C776.851 175.58 776.191 176.16 774.851 176.16C773.271 176.16 772.331 175.16 772.251 173.42H779.791V172.62C779.791 168.88 777.391 167.3 774.691 167.3C771.651 167.3 769.311 169.44 769.311 172.74V172.9C769.311 176.24 771.611 178.22 774.771 178.22ZM772.291 171.64C772.511 170.16 773.391 169.3 774.691 169.3C776.071 169.3 776.871 170.06 776.971 171.64H772.291ZM780.35 178H783.25V172.76C783.25 170.76 784.49 170.06 786.63 170.08V167.38C784.93 167.4 783.91 168.14 783.25 169.54V167.54H780.35V178ZM787.453 178H793.333C796.633 178 798.353 176.62 798.353 174V173.92C798.353 172 797.353 170.94 795.493 170.56C797.093 170.1 797.813 169 797.813 167.5V167.42C797.813 164.98 796.193 163.7 793.073 163.7H787.453V178ZM790.613 175.76V171.66H792.673C794.433 171.66 795.153 172.34 795.153 173.66V173.74C795.153 175.04 794.433 175.76 792.833 175.76H790.613ZM790.613 169.58V165.92H792.533C794.053 165.92 794.733 166.46 794.733 167.66V167.74C794.733 169.02 794.113 169.58 792.553 169.58H790.613ZM801.857 178.22C803.497 178.22 804.417 177.58 805.017 176.74V178H807.837V171.18C807.837 168.34 806.017 167.3 803.457 167.3C800.897 167.3 798.937 168.4 798.757 170.88H801.497C801.617 169.98 802.137 169.4 803.277 169.4C804.597 169.4 804.977 170.08 804.977 171.32V171.74H803.797C800.597 171.74 798.357 172.66 798.357 175.1C798.357 177.3 799.957 178.22 801.857 178.22ZM802.717 176.2C801.657 176.2 801.197 175.7 801.197 174.94C801.197 173.82 802.177 173.46 803.857 173.46H804.977V174.34C804.977 175.5 803.997 176.2 802.717 176.2ZM813.726 178.22C816.766 178.22 818.566 176.5 818.726 174.02H816.106C815.966 175.36 815.026 176.04 813.866 176.04C812.246 176.04 811.306 174.96 811.306 172.86V172.7C811.306 170.7 812.306 169.58 813.806 169.58C814.986 169.58 815.726 170.14 815.926 171.36H818.666C818.406 168.36 816.166 167.3 813.746 167.3C810.766 167.3 808.346 169.36 808.346 172.74V172.9C808.346 176.32 810.666 178.22 813.726 178.22ZM819.208 178H822.108V173.06L825.568 178H828.848L824.748 172.3L828.548 167.54H825.468L822.108 171.96V162.8H819.208V178ZM832.088 178H834.216V173.648H835.816C838.264 173.648 840.008 172.576 840.008 170.16V170.096C840.008 167.696 838.328 166.56 835.768 166.56H832.088V178ZM834.216 172.112V168.208H835.768C837.128 168.208 837.928 168.736 837.928 170.096V170.16C837.928 171.424 837.176 172.112 835.768 172.112H834.216ZM840.606 178H842.542V173.648C842.542 171.872 843.566 171.328 845.262 171.312V169.504C843.854 169.52 843.07 170.144 842.542 171.2V169.632H840.606V178ZM849.481 176.656C848.009 176.656 847.161 175.584 847.161 173.872V173.744C847.161 172.016 848.041 170.976 849.481 170.976C850.921 170.976 851.785 172.032 851.785 173.76V173.872C851.785 175.584 850.921 176.656 849.481 176.656ZM849.465 178.16C851.929 178.16 853.769 176.464 853.769 173.856V173.728C853.769 171.168 851.929 169.456 849.481 169.456C847.017 169.456 845.177 171.184 845.177 173.776V173.904C845.177 176.448 847.001 178.16 849.465 178.16ZM857.582 178.16C858.814 178.16 859.886 177.424 860.334 176.592V178H862.27V165.76H860.334V170.912C859.87 170.08 859.022 169.456 857.662 169.456C855.486 169.456 853.902 171.152 853.902 173.824V173.952C853.902 176.672 855.486 178.16 857.582 178.16ZM858.062 176.624C856.814 176.624 855.886 175.744 855.886 173.904V173.776C855.886 171.968 856.718 170.976 858.142 170.976C859.55 170.976 860.398 171.888 860.398 173.728V173.856C860.398 175.728 859.406 176.624 858.062 176.624ZM866.299 178.16C867.659 178.16 868.539 177.504 868.955 176.688V178H870.891V169.632H868.955V174.608C868.955 175.936 868.043 176.608 867.003 176.608C865.883 176.608 865.355 176.032 865.355 174.768V169.632H863.419V174.992C863.419 177.216 864.651 178.16 866.299 178.16ZM875.779 178.16C878.051 178.16 879.507 176.8 879.651 174.88H877.875C877.763 176.064 876.883 176.672 875.859 176.672C874.435 176.672 873.539 175.712 873.539 173.888V173.76C873.539 172.032 874.483 171.008 875.811 171.008C876.835 171.008 877.571 171.472 877.731 172.592H879.603C879.379 170.288 877.635 169.456 875.779 169.456C873.443 169.456 871.555 171.136 871.555 173.792V173.92C871.555 176.592 873.379 178.16 875.779 178.16ZM883.094 178.144C883.686 178.144 884.102 178.048 884.406 177.936V176.4C884.134 176.512 883.846 176.56 883.462 176.56C882.854 176.56 882.502 176.224 882.502 175.488V171.088H884.342V169.632H882.502V167.792H880.566V169.632H879.446V171.088H880.566V175.664C880.566 177.248 881.43 178.144 883.094 178.144Z" fill="black"/>
<path d="M792.963 25H796.183V19.8H798.003C801.263 19.8 803.363 18.36 803.363 15.34V15.26C803.363 12.24 801.383 10.7 797.903 10.7H792.963V25ZM796.183 17.54V13.16H797.823C799.363 13.16 800.243 13.76 800.243 15.28V15.36C800.243 16.78 799.403 17.54 797.823 17.54H796.183ZM808.47 23.02C806.83 23.02 805.91 21.82 805.91 19.82V19.66C805.91 17.66 806.87 16.5 808.47 16.5C810.09 16.5 811.03 17.7 811.03 19.7V19.84C811.03 21.82 810.09 23.02 808.47 23.02ZM808.45 25.22C811.59 25.22 813.97 23.12 813.97 19.82V19.66C813.97 16.4 811.61 14.3 808.47 14.3C805.33 14.3 802.95 16.44 802.95 19.72V19.88C802.95 23.14 805.33 25.22 808.45 25.22ZM816.501 25H819.381L821.301 18.44L823.081 25H825.921L829.221 14.54H826.441L824.461 21.58L822.621 14.54H820.241L818.221 21.58L816.361 14.54H813.321L816.501 25ZM833.894 25.22C836.754 25.22 838.554 23.96 838.894 21.7H836.154C835.974 22.58 835.314 23.16 833.974 23.16C832.394 23.16 831.454 22.16 831.374 20.42H838.914V19.62C838.914 15.88 836.514 14.3 833.814 14.3C830.774 14.3 828.434 16.44 828.434 19.74V19.9C828.434 23.24 830.734 25.22 833.894 25.22ZM831.414 18.64C831.634 17.16 832.514 16.3 833.814 16.3C835.194 16.3 835.994 17.06 836.094 18.64H831.414ZM839.472 25H842.372V19.76C842.372 17.76 843.612 17.06 845.752 17.08V14.38C844.052 14.4 843.032 15.14 842.372 16.54V14.54H839.472V25ZM846.395 25H849.275V14.54H846.395V25ZM847.815 13.12C848.755 13.12 849.475 12.44 849.475 11.54C849.475 10.64 848.755 9.96 847.815 9.96C846.895 9.96 846.175 10.64 846.175 11.54C846.175 12.44 846.895 13.12 847.815 13.12ZM850.6 25H853.5V18.96C853.5 17.42 854.44 16.66 855.68 16.66C856.96 16.66 857.52 17.34 857.52 18.76V25H860.42V18.34C860.42 15.54 858.96 14.3 856.9 14.3C855.16 14.3 854.02 15.16 853.5 16.2V14.54H850.6V25ZM866.205 28.86C869.645 28.86 871.705 27.28 871.725 24.18V14.54H868.845V16.1C868.245 15.04 867.225 14.3 865.525 14.3C862.925 14.3 860.925 16.4 860.925 19.4V19.54C860.925 22.64 862.945 24.54 865.485 24.54C867.025 24.54 868.265 23.62 868.845 22.6V24.18C868.845 25.82 867.965 26.74 866.205 26.74C864.725 26.74 864.065 26.14 863.885 25.22H861.005C861.285 27.38 862.825 28.86 866.205 28.86ZM866.345 22.36C864.905 22.36 863.885 21.28 863.885 19.54V19.38C863.885 17.66 864.785 16.5 866.405 16.5C867.985 16.5 868.925 17.58 868.925 19.36V19.5C868.925 21.28 867.865 22.36 866.345 22.36ZM745.689 47H748.589V40.82C748.589 39.4 749.489 38.68 750.609 38.68C751.629 38.68 752.249 39.28 752.249 40.62V47H755.129V40.82C755.129 39.4 756.029 38.68 757.149 38.68C758.189 38.68 758.789 39.28 758.789 40.62V47H761.669V40.3C761.669 37.52 760.169 36.3 758.229 36.3C756.909 36.3 755.549 36.86 754.709 38.12C754.209 36.88 753.169 36.3 751.789 36.3C750.229 36.3 749.109 37.16 748.589 38.14V36.54H745.689V47ZM762.886 47H765.766V36.54H762.886V47ZM764.306 35.12C765.246 35.12 765.966 34.44 765.966 33.54C765.966 32.64 765.246 31.96 764.306 31.96C763.386 31.96 762.666 32.64 762.666 33.54C762.666 34.44 763.386 35.12 764.306 35.12ZM770.891 47.22C773.651 47.22 775.291 46.04 775.291 43.78C775.291 41.54 773.851 40.88 771.231 40.5C769.711 40.28 769.211 40.02 769.211 39.36C769.211 38.72 769.751 38.28 770.691 38.28C771.691 38.28 772.171 38.68 772.331 39.54H774.991C774.731 37.14 772.991 36.3 770.671 36.3C768.531 36.3 766.531 37.38 766.531 39.56C766.531 41.6 767.611 42.4 770.391 42.82C771.891 43.04 772.511 43.34 772.511 44.06C772.511 44.78 771.991 45.2 770.871 45.2C769.611 45.2 769.151 44.66 769.031 43.72H766.331C766.431 45.98 768.071 47.22 770.891 47.22ZM779.59 47.22C782.35 47.22 783.99 46.04 783.99 43.78C783.99 41.54 782.55 40.88 779.93 40.5C778.41 40.28 777.91 40.02 777.91 39.36C777.91 38.72 778.45 38.28 779.39 38.28C780.39 38.28 780.87 38.68 781.03 39.54H783.69C783.43 37.14 781.69 36.3 779.37 36.3C777.23 36.3 775.23 37.38 775.23 39.56C775.23 41.6 776.31 42.4 779.09 42.82C780.59 43.04 781.21 43.34 781.21 44.06C781.21 44.78 780.69 45.2 779.57 45.2C778.31 45.2 777.85 44.66 777.73 43.72H775.03C775.13 45.98 776.77 47.22 779.59 47.22ZM784.569 47H787.449V36.54H784.569V47ZM785.989 35.12C786.929 35.12 787.649 34.44 787.649 33.54C787.649 32.64 786.929 31.96 785.989 31.96C785.069 31.96 784.349 32.64 784.349 33.54C784.349 34.44 785.069 35.12 785.989 35.12ZM793.654 45.02C792.014 45.02 791.094 43.82 791.094 41.82V41.66C791.094 39.66 792.054 38.5 793.654 38.5C795.274 38.5 796.214 39.7 796.214 41.7V41.84C796.214 43.82 795.274 45.02 793.654 45.02ZM793.634 47.22C796.774 47.22 799.154 45.12 799.154 41.82V41.66C799.154 38.4 796.794 36.3 793.654 36.3C790.514 36.3 788.134 38.44 788.134 41.72V41.88C788.134 45.14 790.514 47.22 793.634 47.22ZM799.758 47H802.658V40.96C802.658 39.42 803.598 38.66 804.838 38.66C806.118 38.66 806.678 39.34 806.678 40.76V47H809.578V40.34C809.578 37.54 808.118 36.3 806.058 36.3C804.318 36.3 803.178 37.16 802.658 38.2V36.54H799.758V47ZM810.523 42.52H815.643V40.22H810.523V42.52ZM821.408 47.22C824.448 47.22 826.248 45.5 826.408 43.02H823.788C823.648 44.36 822.708 45.04 821.548 45.04C819.928 45.04 818.988 43.96 818.988 41.86V41.7C818.988 39.7 819.988 38.58 821.488 38.58C822.668 38.58 823.408 39.14 823.608 40.36H826.348C826.088 37.36 823.848 36.3 821.428 36.3C818.448 36.3 816.028 38.36 816.028 41.74V41.9C816.028 45.32 818.348 47.22 821.408 47.22ZM826.89 47H829.79V41.76C829.79 39.76 831.03 39.06 833.17 39.08V36.38C831.47 36.4 830.45 37.14 829.79 38.54V36.54H826.89V47ZM833.814 47H836.694V36.54H833.814V47ZM835.234 35.12C836.174 35.12 836.894 34.44 836.894 33.54C836.894 32.64 836.174 31.96 835.234 31.96C834.314 31.96 833.594 32.64 833.594 33.54C833.594 34.44 834.314 35.12 835.234 35.12ZM841.839 47.2C842.619 47.2 843.199 47.06 843.599 46.92V44.68C843.259 44.82 842.939 44.88 842.499 44.88C841.759 44.88 841.339 44.48 841.339 43.64V38.6H843.539V36.54H841.339V34.28H838.459V36.54H837.119V38.6H838.459V43.9C838.459 46.08 839.639 47.2 841.839 47.2ZM844.298 47H847.178V36.54H844.298V47ZM845.718 35.12C846.658 35.12 847.378 34.44 847.378 33.54C847.378 32.64 846.658 31.96 845.718 31.96C844.798 31.96 844.078 32.64 844.078 33.54C844.078 34.44 844.798 35.12 845.718 35.12ZM853.243 47.22C856.283 47.22 858.083 45.5 858.243 43.02H855.623C855.483 44.36 854.543 45.04 853.383 45.04C851.763 45.04 850.823 43.96 850.823 41.86V41.7C850.823 39.7 851.823 38.58 853.323 38.58C854.503 38.58 855.243 39.14 855.443 40.36H858.183C857.923 37.36 855.683 36.3 853.263 36.3C850.283 36.3 847.863 38.36 847.863 41.74V41.9C847.863 45.32 850.183 47.22 853.243 47.22ZM861.545 47.22C863.185 47.22 864.105 46.58 864.705 45.74V47H867.525V40.18C867.525 37.34 865.705 36.3 863.145 36.3C860.585 36.3 858.625 37.4 858.445 39.88H861.185C861.305 38.98 861.825 38.4 862.965 38.4C864.285 38.4 864.665 39.08 864.665 40.32V40.74H863.485C860.285 40.74 858.045 41.66 858.045 44.1C858.045 46.3 859.645 47.22 861.545 47.22ZM862.405 45.2C861.345 45.2 860.885 44.7 860.885 43.94C860.885 42.82 861.865 42.46 863.545 42.46H864.665V43.34C864.665 44.5 863.685 45.2 862.405 45.2ZM868.755 47H871.635V31.8H868.755V47ZM770.205 69.22C773.245 69.22 775.045 67.5 775.205 65.02H772.585C772.445 66.36 771.505 67.04 770.345 67.04C768.725 67.04 767.785 65.96 767.785 63.86V63.7C767.785 61.7 768.785 60.58 770.285 60.58C771.465 60.58 772.205 61.14 772.405 62.36H775.145C774.885 59.36 772.645 58.3 770.225 58.3C767.245 58.3 764.825 60.36 764.825 63.74V63.9C764.825 67.32 767.145 69.22 770.205 69.22ZM780.568 67.02C778.928 67.02 778.008 65.82 778.008 63.82V63.66C778.008 61.66 778.968 60.5 780.568 60.5C782.188 60.5 783.128 61.7 783.128 63.7V63.84C783.128 65.82 782.188 67.02 780.568 67.02ZM780.548 69.22C783.688 69.22 786.068 67.12 786.068 63.82V63.66C786.068 60.4 783.708 58.3 780.568 58.3C777.428 58.3 775.048 60.44 775.048 63.72V63.88C775.048 67.14 777.428 69.22 780.548 69.22ZM786.672 69H789.572V62.96C789.572 61.42 790.512 60.66 791.752 60.66C793.032 60.66 793.592 61.34 793.592 62.76V69H796.492V62.34C796.492 59.54 795.032 58.3 792.972 58.3C791.232 58.3 790.092 59.16 789.572 60.2V58.54H786.672V69ZM801.437 69.22C804.197 69.22 805.837 68.04 805.837 65.78C805.837 63.54 804.397 62.88 801.777 62.5C800.257 62.28 799.757 62.02 799.757 61.36C799.757 60.72 800.297 60.28 801.237 60.28C802.237 60.28 802.717 60.68 802.877 61.54H805.537C805.277 59.14 803.537 58.3 801.217 58.3C799.077 58.3 797.077 59.38 797.077 61.56C797.077 63.6 798.157 64.4 800.937 64.82C802.437 65.04 803.057 65.34 803.057 66.06C803.057 66.78 802.537 67.2 801.417 67.2C800.157 67.2 799.697 66.66 799.577 65.72H796.877C796.977 67.98 798.617 69.22 801.437 69.22ZM810.156 69.2C810.936 69.2 811.516 69.06 811.916 68.92V66.68C811.576 66.82 811.256 66.88 810.816 66.88C810.076 66.88 809.656 66.48 809.656 65.64V60.6H811.856V58.54H809.656V56.28H806.776V58.54H805.436V60.6H806.776V65.9C806.776 68.08 807.956 69.2 810.156 69.2ZM812.535 69H815.435V63.76C815.435 61.76 816.675 61.06 818.815 61.08V58.38C817.115 58.4 816.095 59.14 815.435 60.54V58.54H812.535V69ZM822.858 69.22C824.578 69.22 825.638 68.42 826.178 67.36V69H829.058V58.54H826.178V64.68C826.178 66.22 825.218 66.98 823.998 66.98C822.758 66.98 822.178 66.3 822.178 64.88V58.54H819.298V65.28C819.298 68.02 820.818 69.22 822.858 69.22ZM835.025 69.22C838.065 69.22 839.865 67.5 840.025 65.02H837.405C837.265 66.36 836.325 67.04 835.165 67.04C833.545 67.04 832.605 65.96 832.605 63.86V63.7C832.605 61.7 833.605 60.58 835.105 60.58C836.285 60.58 837.025 61.14 837.225 62.36H839.965C839.705 59.36 837.465 58.3 835.045 58.3C832.065 58.3 829.645 60.36 829.645 63.74V63.9C829.645 67.32 831.965 69.22 835.025 69.22ZM844.327 69.2C845.107 69.2 845.687 69.06 846.087 68.92V66.68C845.747 66.82 845.427 66.88 844.987 66.88C844.247 66.88 843.827 66.48 843.827 65.64V60.6H846.027V58.54H843.827V56.28H840.947V58.54H839.607V60.6H840.947V65.9C840.947 68.08 842.127 69.2 844.327 69.2ZM846.786 69H849.666V58.54H846.786V69ZM848.206 57.12C849.146 57.12 849.866 56.44 849.866 55.54C849.866 54.64 849.146 53.96 848.206 53.96C847.286 53.96 846.566 54.64 846.566 55.54C846.566 56.44 847.286 57.12 848.206 57.12ZM855.871 67.02C854.231 67.02 853.311 65.82 853.311 63.82V63.66C853.311 61.66 854.271 60.5 855.871 60.5C857.491 60.5 858.431 61.7 858.431 63.7V63.84C858.431 65.82 857.491 67.02 855.871 67.02ZM855.851 69.22C858.991 69.22 861.371 67.12 861.371 63.82V63.66C861.371 60.4 859.011 58.3 855.871 58.3C852.731 58.3 850.351 60.44 850.351 63.72V63.88C850.351 67.14 852.731 69.22 855.851 69.22ZM861.975 69H864.875V62.96C864.875 61.42 865.815 60.66 867.055 60.66C868.335 60.66 868.895 61.34 868.895 62.76V69H871.795V62.34C871.795 59.54 870.335 58.3 868.275 58.3C866.535 58.3 865.395 59.16 864.875 60.2V58.54H861.975V69ZM780.629 91.2C781.409 91.2 781.989 91.06 782.389 90.92V88.68C782.049 88.82 781.729 88.88 781.289 88.88C780.549 88.88 780.129 88.48 780.129 87.64V82.6H782.329V80.54H780.129V78.28H777.249V80.54H775.909V82.6H777.249V87.9C777.249 90.08 778.429 91.2 780.629 91.2ZM783.008 91H785.908V84.96C785.908 83.42 786.848 82.66 788.088 82.66C789.368 82.66 789.928 83.34 789.928 84.76V91H792.828V84.34C792.828 81.54 791.368 80.3 789.308 80.3C787.568 80.3 786.428 81.16 785.908 82.2V75.8H783.008V91ZM793.972 91H796.872V85.76C796.872 83.76 798.112 83.06 800.252 83.08V80.38C798.552 80.4 797.532 81.14 796.872 82.54V80.54H793.972V91ZM805.501 89.02C803.861 89.02 802.941 87.82 802.941 85.82V85.66C802.941 83.66 803.901 82.5 805.501 82.5C807.121 82.5 808.061 83.7 808.061 85.7V85.84C808.061 87.82 807.121 89.02 805.501 89.02ZM805.481 91.22C808.621 91.22 811.001 89.12 811.001 85.82V85.66C811.001 82.4 808.641 80.3 805.501 80.3C802.361 80.3 799.981 82.44 799.981 85.72V85.88C799.981 89.14 802.361 91.22 805.481 91.22ZM815.085 91.22C816.805 91.22 817.865 90.42 818.405 89.36V91H821.285V80.54H818.405V86.68C818.405 88.22 817.445 88.98 816.225 88.98C814.985 88.98 814.405 88.3 814.405 86.88V80.54H811.525V87.28C811.525 90.02 813.045 91.22 815.085 91.22ZM827.151 94.86C830.591 94.86 832.651 93.28 832.671 90.18V80.54H829.791V82.1C829.191 81.04 828.171 80.3 826.471 80.3C823.871 80.3 821.871 82.4 821.871 85.4V85.54C821.871 88.64 823.891 90.54 826.431 90.54C827.971 90.54 829.211 89.62 829.791 88.6V90.18C829.791 91.82 828.911 92.74 827.151 92.74C825.671 92.74 825.011 92.14 824.831 91.22H821.951C822.231 93.38 823.771 94.86 827.151 94.86ZM827.291 88.36C825.851 88.36 824.831 87.28 824.831 85.54V85.38C824.831 83.66 825.731 82.5 827.351 82.5C828.931 82.5 829.871 83.58 829.871 85.36V85.5C829.871 87.28 828.811 88.36 827.291 88.36ZM833.886 91H836.786V84.96C836.786 83.42 837.726 82.66 838.966 82.66C840.246 82.66 840.806 83.34 840.806 84.76V91H843.706V84.34C843.706 81.54 842.246 80.3 840.186 80.3C838.446 80.3 837.306 81.16 836.786 82.2V75.8H833.886V91ZM849.731 89.02C848.091 89.02 847.171 87.82 847.171 85.82V85.66C847.171 83.66 848.131 82.5 849.731 82.5C851.351 82.5 852.291 83.7 852.291 85.7V85.84C852.291 87.82 851.351 89.02 849.731 89.02ZM849.711 91.22C852.851 91.22 855.231 89.12 855.231 85.82V85.66C855.231 82.4 852.871 80.3 849.731 80.3C846.591 80.3 844.211 82.44 844.211 85.72V85.88C844.211 89.14 846.591 91.22 849.711 91.22ZM859.315 91.22C861.035 91.22 862.095 90.42 862.635 89.36V91H865.515V80.54H862.635V86.68C862.635 88.22 861.675 88.98 860.455 88.98C859.215 88.98 858.635 88.3 858.635 86.88V80.54H855.755V87.28C855.755 90.02 857.275 91.22 859.315 91.22ZM870.561 91.2C871.341 91.2 871.921 91.06 872.321 90.92V88.68C871.981 88.82 871.661 88.88 871.221 88.88C870.481 88.88 870.061 88.48 870.061 87.64V82.6H872.261V80.54H870.061V78.28H867.181V80.54H865.841V82.6H867.181V87.9C867.181 90.08 868.361 91.2 870.561 91.2ZM807.893 113H817.533V110.48H811.113V106.92H815.993V104.56H811.113V101.22H817.213V98.7H807.893V113ZM821.667 113.22C823.387 113.22 824.447 112.42 824.987 111.36V113H827.867V102.54H824.987V108.68C824.987 110.22 824.027 110.98 822.807 110.98C821.567 110.98 820.987 110.3 820.987 108.88V102.54H818.107V109.28C818.107 112.02 819.627 113.22 821.667 113.22ZM829.093 113H831.993V107.76C831.993 105.76 833.233 105.06 835.373 105.08V102.38C833.673 102.4 832.653 103.14 831.993 104.54V102.54H829.093V113ZM840.621 111.02C838.981 111.02 838.061 109.82 838.061 107.82V107.66C838.061 105.66 839.021 104.5 840.621 104.5C842.241 104.5 843.181 105.7 843.181 107.7V107.84C843.181 109.82 842.241 111.02 840.621 111.02ZM840.601 113.22C843.741 113.22 846.121 111.12 846.121 107.82V107.66C846.121 104.4 843.761 102.3 840.621 102.3C837.481 102.3 835.101 104.44 835.101 107.72V107.88C835.101 111.14 837.481 113.22 840.601 113.22ZM846.726 116.56H849.626V111.4C850.166 112.42 851.346 113.22 852.966 113.22C855.566 113.22 857.526 111.28 857.526 107.82V107.66C857.526 104.2 855.526 102.3 852.966 102.3C851.426 102.3 850.206 103.18 849.626 104.18V102.54H846.726V116.56ZM852.106 110.96C850.526 110.96 849.526 109.94 849.526 107.84V107.68C849.526 105.58 850.566 104.52 852.086 104.52C853.546 104.52 854.586 105.56 854.586 107.68V107.84C854.586 109.88 853.706 110.96 852.106 110.96ZM862.94 113.22C865.8 113.22 867.6 111.96 867.94 109.7H865.2C865.02 110.58 864.36 111.16 863.02 111.16C861.44 111.16 860.5 110.16 860.42 108.42H867.96V107.62C867.96 103.88 865.56 102.3 862.86 102.3C859.82 102.3 857.48 104.44 857.48 107.74V107.9C857.48 111.24 859.78 113.22 862.94 113.22ZM860.46 106.64C860.68 105.16 861.56 104.3 862.86 104.3C864.24 104.3 865.04 105.06 865.14 106.64H860.46ZM870.061 113.18C871.081 113.18 871.861 112.4 871.861 111.42C871.861 110.46 871.081 109.68 870.061 109.68C869.061 109.68 868.281 110.46 868.281 111.42C868.281 112.4 869.061 113.18 870.061 113.18Z" fill="#ABA6A2"/>
<path d="M0 34.2398V75.7122L111.473 145.286V103.816L0 34.2398Z" fill="black"/>
<path d="M111.473 145.286L51.767 182.37H0.0999471V145.286L111.473 145.286Z" fill="black"/>
<path d="M0 34.2398L59.5065 -2.8421H111.373V34.2398L0 34.2398Z" fill="black"/>
<path d="M154.306 147.433C162.682 147.433 167.836 142.427 167.836 136.133C167.836 128.798 163.425 126.468 154.851 125.378C149.399 124.585 148.259 123.395 148.259 120.868C148.259 118.488 150.043 116.853 153.562 116.853C157.081 116.853 158.964 118.34 159.46 121.561H166.845C166.201 114.523 161.542 110.955 153.562 110.955C145.731 110.955 140.676 115.465 140.676 121.512C140.676 128.352 144.393 131.078 153.463 132.267C158.667 133.06 160.154 134.051 160.154 136.876C160.154 139.652 157.825 141.585 154.306 141.585C149.052 141.585 147.714 138.958 147.367 135.786H139.684C140.13 142.874 144.591 147.433 154.306 147.433ZM169.851 146.888H176.988V120.967H169.851V146.888ZM173.37 117.448C175.699 117.448 177.484 115.763 177.484 113.532C177.484 111.302 175.699 109.617 173.37 109.617C171.09 109.617 169.306 111.302 169.306 113.532C169.306 115.763 171.09 117.448 173.37 117.448ZM180.47 146.888H187.607V109.22H180.47V146.888ZM197.831 146.888H205.909L215.326 120.967H208.387L202.242 139.503L196.046 120.967H188.364L197.831 146.888ZM226.571 147.433C233.658 147.433 238.119 144.311 238.962 138.71H232.172C231.726 140.891 230.09 142.328 226.769 142.328C222.854 142.328 220.524 139.85 220.326 135.538H239.011V133.556C239.011 124.287 233.064 120.372 226.373 120.372C218.839 120.372 213.04 125.675 213.04 133.853V134.25C213.04 142.527 218.74 147.433 226.571 147.433ZM220.425 131.127C220.97 127.459 223.151 125.328 226.373 125.328C229.793 125.328 231.775 127.212 232.023 131.127H220.425ZM240.395 146.888H247.581V133.903C247.581 128.946 250.654 127.212 255.958 127.261V120.57C251.745 120.62 249.217 122.454 247.581 125.923V120.967H240.395V146.888ZM263.847 146.888H271.579L278.072 122.404L284.465 146.888H292.643L301.267 111.451H293.833L288.083 136.083L281.789 111.451H274.949L268.903 135.935L263.351 111.451H255.223L263.847 146.888ZM311.863 147.433C318.95 147.433 323.411 144.311 324.254 138.71H317.464C317.018 140.891 315.382 142.328 312.061 142.328C308.146 142.328 305.816 139.85 305.618 135.538H324.303V133.556C324.303 124.287 318.356 120.372 311.665 120.372C304.131 120.372 298.332 125.675 298.332 133.853V134.25C298.332 142.527 304.032 147.433 311.863 147.433ZM305.717 131.127C306.262 127.459 308.443 125.328 311.665 125.328C315.085 125.328 317.067 127.212 317.315 131.127H305.717ZM341.151 147.433C347.594 147.433 352.451 142.626 352.451 134.051V133.655C352.451 125.08 347.495 120.372 341.151 120.372C337.334 120.372 334.311 122.553 332.873 125.031V109.22H325.687V146.888H332.873V142.774C334.212 145.451 337.136 147.433 341.151 147.433ZM339.019 141.833C335.104 141.833 332.626 139.305 332.626 134.101V133.704C332.626 128.5 335.203 125.873 338.97 125.873C342.588 125.873 345.165 128.451 345.165 133.704V134.101C345.165 139.156 342.984 141.833 339.019 141.833Z" fill="black"/>
</g>
<defs>
<clipPath id="clip0_4044_14958">
<rect width="885" height="183" fill="white"/>
</clipPath>
</defs>
</svg>
